<?xml version="1.0" encoding="UTF-8"?>
<svg version="1.1" xmlns="http://www.w3.org/2000/svg" width="400" height="400">
<path d="M0 0 C132 0 264 0 400 0 C400 132 400 264 400 400 C268 400 136 400 0 400 C0 268 0 136 0 0 Z " fill="#4285F4" transform="translate(0,0)"/>
<path d="M0 0 C39.78836086 -1.09244195 74.28914777 13.00263126 104.02294922 39.06201172 C112.07634181 46.80518117 118.91056442 55.72958271 125.02294922 65.06201172 C125.86792969 66.34398438 125.86792969 66.34398438 126.72998047 67.65185547 C145.9075547 98.51779322 150.58158253 136.78033425 142.80810547 171.94750977 C138.49832559 190.08821032 130.88348768 208.55542137 119.02294922 223.06201172 C118.20890625 224.14869141 118.20890625 224.14869141 117.37841797 225.25732422 C113.32439873 230.65658235 108.87887282 235.38172791 104.02294922 240.06201172 C103.19794922 240.90763672 102.37294922 241.75326172 101.52294922 242.62451172 C84.66397486 259.06201172 84.66397486 259.06201172 79.02294922 259.06201172 C80.30526438 256.26753245 81.67844542 254.17790556 83.77294922 251.93701172 C101.39789653 231.7453245 106.60340392 204.04833425 105.02294922 178.06201172 C102.34747354 151.62408758 86.7500104 128.12297721 67.02294922 111.06201172 C48.41177543 96.3098983 24.25383202 86.88997616 0.31201172 89.33935547 C-13.61424795 91.43427992 -24.51724303 97.64200498 -33.22949219 108.64355469 C-42.29739532 121.02465755 -44.77447648 135.02899675 -42.97705078 150.06201172 C-41.30385073 158.1443206 -37.67908435 165.34482091 -32.97705078 172.06201172 C-53.4140076 164.76047778 -68.57254975 143.39445878 -77.72705078 124.74951172 C-86.60610114 103.65048018 -87.26924661 79.57706948 -78.86230469 58.20458984 C-69.71049219 36.05447775 -54.05764996 17.44178928 -31.85205078 7.68701172 C-29.57009921 6.78697942 -27.27856286 5.91077745 -24.97705078 5.06201172 C-23.93419922 4.66111328 -22.89134766 4.26021484 -21.81689453 3.84716797 C-14.45557771 1.17809697 -7.786188 0.24421978 0 0 Z " fill="#FDFEFE" transform="translate(193.97705078125,59.93798828125)"/>
<path d="M0 0 C0.99 0.495 0.99 0.495 2 1 C1.50371094 1.46148437 1.00742188 1.92296875 0.49609375 2.3984375 C-16.28852384 18.51421834 -25.39530543 41.95909086 -26.26171875 65.1015625 C-26.75902831 91.85732424 -18.91157523 115.90333569 -1 136 C-0.29101562 136.85207031 0.41796875 137.70414063 1.1484375 138.58203125 C15.46037 155.39984363 38.81935253 169.06657794 61 171 C75.05034798 171.79799137 87.67464653 170.24634458 100 163 C100.61230469 162.66613281 101.22460938 162.33226562 101.85546875 161.98828125 C112.70098188 155.31221024 118.51808793 142.5569731 121.6015625 130.68359375 C123.91519018 115.10063087 121.39291472 102.36649381 113 89 C131.46880065 95.76644555 146.13467427 114.14230184 155 131 C156.94569005 135.59385 158.56503909 140.22355768 160 145 C160.26039063 145.80614746 160.52078125 146.61229492 160.7890625 147.44287109 C162.935705 154.50975045 163.47227721 161.01190663 163.375 168.375 C163.36194824 170.02471802 163.36194824 170.02471802 163.34863281 171.70776367 C163.20675953 179.55789145 162.46444704 186.51146564 160 194 C159.70996094 194.99515625 159.41992188 195.9903125 159.12109375 197.015625 C151.56663047 221.67035873 135.2680435 239.18657256 113.16015625 251.59375 C105.52186078 255.36121002 97.28393176 257.21549939 89 259 C87.65228516 259.29197266 87.65228516 259.29197266 86.27734375 259.58984375 C69.6819642 261.66673869 53.11233951 260.17892294 37 256 C35.58654297 255.6596875 35.58654297 255.6596875 34.14453125 255.3125 C31.70177329 254.6578245 29.37316235 253.87563972 27 253 C26.401875 252.78005371 25.80375 252.56010742 25.1875 252.33349609 C-9.63069047 239.31852345 -38.48773121 213.64880317 -54.15942383 179.77416992 C-69.15926901 145.79320507 -72.37341146 107.05350145 -59.19775391 71.85693359 C-51.72616072 53.0970703 -41.27626685 32.52844225 -25 20 C-24.21625 19.21625 -23.4325 18.4325 -22.625 17.625 C-15.77114742 10.77114742 -8.04726737 5.36484491 0 0 Z " fill="#FDFEFE" transform="translate(127,80)"/>
<path d="M0 0 C6.63761723 3.31880861 11.63711103 7.918522 17 13 C17.82886719 13.7528125 18.65773438 14.505625 19.51171875 15.28125 C36.78959427 31.55554405 48.30811075 55.0591335 49.22265625 78.828125 C49.85067808 105.13201625 43.19649432 129.52595602 26 150 C25.195625 151.010625 24.39125 152.02125 23.5625 153.0625 C23.046875 153.701875 22.53125 154.34125 22 155 C23.3921875 154.01 23.3921875 154.01 24.8125 153 C28 151 28 151 31 151 C30.67 151.99 30.34 152.98 30 154 C30.33 154.66 30.66 155.32 31 156 C30.484375 155.79375 29.96875 155.5875 29.4375 155.375 C25.96734329 154.84112974 23.29364209 155.92323239 20 157 C20.33 155.68 20.66 154.36 21 153 C19.35 153 17.7 153 16 153 C16.75827092 151.82512964 17.53207755 150.66027408 18.3125 149.5 C18.74175781 148.8503125 19.17101562 148.200625 19.61328125 147.53125 C20.07089844 147.0259375 20.52851563 146.520625 21 146 C21.99 146 22.98 146 24 146 C24 145.01 24 144.02 24 143 C25.98 142.01 25.98 142.01 28 141 C28 139.68 28 138.36 28 137 C27.01 137.33 26.02 137.66 25 138 C24.67 138.99 24.34 139.98 24 141 C23.34 141 22.68 141 22 141 C22 141.99 22 142.98 22 144 C20.71034824 145.37562854 19.37310707 146.70766393 18 148 C17.34 148.99 16.68 149.98 16 151 C14.68 150.67 13.36 150.34 12 150 C12.61875 149.45085937 12.61875 149.45085937 13.25 148.890625 C28.47889506 134.61353588 37.43733235 112.30096503 38.2734375 91.578125 C38.82624641 67.27186858 33.32206164 48.28629114 18 29 C17.22849609 28.01580078 17.22849609 28.01580078 16.44140625 27.01171875 C10.70960914 20.00618895 3.79400994 14.67785058 -3.703125 9.67578125 C-6.04858065 7.96455596 -8.00322423 6.10211028 -10 4 C-7.36 4.33 -4.72 4.66 -2 5 C-2 5.99 -2 6.98 -2 8 C-0.68 8.33 0.64 8.66 2 9 C2 8.01 2 7.02 2 6 C1.01 5.67 0.02 5.34 -1 5 C-0.67 3.35 -0.34 1.7 0 0 Z " fill="#4485EE" transform="translate(251,164)"/>
<path d="M0 0 C0.33 0 0.66 0 1 0 C0.67 2.31 0.34 4.62 0 7 C-1.32 7.33 -2.64 7.66 -4 8 C-3.67 10.31 -3.34 12.62 -3 15 C-1.35 15 0.3 15 2 15 C2.33 13.68 2.66 12.36 3 11 C3.66 11.33 4.32 11.66 5 12 C4.32904297 13.20269531 4.32904297 13.20269531 3.64453125 14.4296875 C-7.72219374 35.80591658 -11.20395357 59.77428248 -4.40820312 83.3996582 C-0.52892809 95.31326735 5.7089451 106.60696945 14 116 C15.07121094 117.30130859 15.07121094 117.30130859 16.1640625 118.62890625 C21.80645442 125.23620232 27.82486927 130.0724784 34.99609375 134.90625 C37.28818051 136.50385533 39.15279835 137.93431213 41 140 C40.01 140.33 39.02 140.66 38 141 C38 141.99 38 142.98 38 144 C37.01 144.33 36.02 144.66 35 145 C35.33 145.66 35.66 146.32 36 147 C15.06652691 139.61171538 -0.8330409 117.43411529 -10.04785156 98.17138672 C-11.77099622 94.24173323 -13.13405432 90.21025312 -14.4375 86.125 C-14.80790405 84.96689819 -14.80790405 84.96689819 -15.18579102 83.78540039 C-22.10003767 60.80606051 -18.29082769 34.34206137 -8 13 C-5.55880958 8.49941672 -2.83772071 4.25658107 0 0 Z " fill="#4485F0" transform="translate(118,92)"/>
<path d="M0 0 C0.33 0 0.66 0 1 0 C0.67 2.31 0.34 4.62 0 7 C-1.32 7.33 -2.64 7.66 -4 8 C-3.67 10.31 -3.34 12.62 -3 15 C-1.35 15 0.3 15 2 15 C2.33 13.68 2.66 12.36 3 11 C3.66 11.33 4.32 11.66 5 12 C4.32904297 13.20269531 4.32904297 13.20269531 3.64453125 14.4296875 C-7.57631058 35.53156916 -11.09263298 58.71949599 -4.4375 82.0625 C-3.9630477 83.57611779 -3.4831724 85.08805425 -2.99609375 86.59765625 C-2 90 -2 90 -3 92 C-5 89 -5 89 -5.5 86.375 C-5.665 85.59125 -5.83 84.8075 -6 84 C-6.66 83.67 -7.32 83.34 -8 83 C-8.33 83.99 -8.66 84.98 -9 86 C-9.33 85.34 -9.66 84.68 -10 84 C-10.66 84 -11.32 84 -12 84 C-11.67 82.35 -11.34 80.7 -11 79 C-10.67 79 -10.34 79 -10 79 C-10 65.14 -10 51.28 -10 37 C-10.66 36.67 -11.32 36.34 -12 36 C-11.938125 36.94875 -11.87625 37.8975 -11.8125 38.875 C-11.874375 39.90625 -11.93625 40.9375 -12 42 C-12.99 42.66 -13.98 43.32 -15 44 C-15.42901633 46.7181249 -15.65604981 49.20288861 -15.75 51.9375 C-15.78601318 52.72495605 -15.82202637 53.51241211 -15.85913086 54.32373047 C-16.18341979 63.24035793 -15.64072249 72.10874334 -15 81 C-22.89952382 66.7183184 -18.18129531 42.83229755 -14 28 C-10.80227613 17.81813566 -5.89855063 8.84782595 0 0 Z " fill="#4F8AE4" transform="translate(118,92)"/>
<path d="M0 0 C10.65246629 9.53115405 15.82477945 28.22463 17 42 C17.35395588 51.35110665 17.5768878 60.75312994 16 70 C15.67 70 15.34 70 15 70 C14.98018066 69.25016846 14.96036133 68.50033691 14.93994141 67.7277832 C14.84335471 64.25573174 14.73422944 60.78417586 14.625 57.3125 C14.5940625 56.13365234 14.563125 54.95480469 14.53125 53.74023438 C14.2667989 45.69651327 13.40669323 37.92360045 12 30 C11.01 32.475 11.01 32.475 10 35 C9.67 35 9.34 35 9 35 C8.98541748 36.14065918 8.97083496 37.28131836 8.95581055 38.45654297 C8.89793273 42.67984717 8.82070023 46.90261225 8.73754883 51.12548828 C8.70424974 52.9548265 8.67623343 54.7842687 8.65356445 56.61376953 C8.62010923 59.24036056 8.56780037 61.86599441 8.51171875 64.4921875 C8.50213387 65.72350906 8.50213387 65.72350906 8.49235535 66.97970581 C8.43237305 69.28466797 8.43237305 69.28466797 8 73 C6.515 73.99 6.515 73.99 5 75 C5.10175537 74.12601563 5.10175537 74.12601563 5.20556641 73.234375 C7.75587493 49.85424925 7.11222143 25.30334244 -7.7109375 5.7421875 C-9 4 -9 4 -9 2 C-5.42258014 3.19247329 -5.2482633 3.84020491 -3.5625 7.0625 C-2.92054688 8.28066406 -2.92054688 8.28066406 -2.265625 9.5234375 C-1.84796875 10.34070313 -1.4303125 11.15796875 -1 12 C-0.62359375 12.71414062 -0.2471875 13.42828125 0.140625 14.1640625 C2.13865188 18.02592042 3.7459993 21.81999765 5 26 C5.66 26 6.32 26 7 26 C7.72256829 21.51866426 7.72256829 21.51866426 8 17 C7.34 17 6.68 17 6 17 C5.67 15.35 5.34 13.7 5 12 C4.01 12 3.02 12 2 12 C2.04125 10.948125 2.0825 9.89625 2.125 8.8125 C2.00852125 5.25989827 1.52791932 3.15133359 0 0 Z " fill="#558CE2" transform="translate(283,196)"/>
<path d="M0 0 C0.66 0.33 1.32 0.66 2 1 C4.56845194 9.37125078 4.18134201 18.53182364 4.1875 27.1875 C4.1887085 28.87262695 4.1887085 28.87262695 4.18994141 30.59179688 C4.13406847 38.73186306 4.13406847 38.73186306 3 41 C2.34 41 1.68 41 1 41 C1.02320313 41.67546875 1.04640625 42.3509375 1.0703125 43.046875 C1.08835937 43.93890625 1.10640625 44.8309375 1.125 45.75 C1.14820313 46.63171875 1.17140625 47.5134375 1.1953125 48.421875 C0.99139502 51.1135858 0.36551721 52.69904974 -1 55 C-1.33 55 -1.66 55 -2 55 C-2.85734054 43.64869525 -3.12747067 32.38089989 -3.0625 21 C-3.0574649 19.4348973 -3.05290562 17.86979299 -3.04882812 16.3046875 C-3.03800474 12.53641734 -3.02085616 8.76822743 -3 5 C-2.34 5 -1.68 5 -1 5 C-0.67 3.35 -0.34 1.7 0 0 Z " fill="#4385F1" transform="translate(294,225)"/>
<path d="M0 0 C2.43840084 3.09404336 4.37991759 6.32022157 6.3125 9.75 C11.32038698 18.39331958 17.279168 25.63096593 24 33 C21 33 21 33 19.3125 31.625 C18 30 18 30 18 28 C16.68 28 15.36 28 14 28 C14.26393501 31.43230448 14.26393501 31.43230448 15 35 C17.81509993 37.2773501 17.81509993 37.2773501 21 37 C21.99 39.97 22.98 42.94 24 46 C14.57961172 39.54528951 6.02327115 30.76945199 0 21 C0 20.34 0 19.68 0 19 C0.99 19 1.98 19 3 19 C3 18.34 3 17.68 3 17 C3.66 17 4.32 17 5 17 C5.33 15.35 5.66 13.7 6 12 C5.01 12 4.02 12 3 12 C3 10.68 3 9.36 3 8 C2.34 8 1.68 8 1 8 C0.67 5.36 0.34 2.72 0 0 Z " fill="#548CE3" transform="translate(116,184)"/>
<path d="M0 0 C9.85758258 4.92879129 17.38138661 13.18985722 25 21 C22 21 22 21 20.39453125 19.6875 C19.87246094 19.130625 19.35039062 18.57375 18.8125 18 C18.28269531 17.443125 17.75289063 16.88625 17.20703125 16.3125 C16.80871094 15.879375 16.41039062 15.44625 16 15 C15.34 16.32 14.68 17.64 14 19 C14.66 19 15.32 19 16 19 C16 20.98 16 22.96 16 25 C16.99 25 17.98 25 19 25 C19 25.99 19 26.98 19 28 C19.99 28.33 20.98 28.66 22 29 C22 29.99 22 30.98 22 32 C22.99 32.495 22.99 32.495 24 33 C23.01 33 22.02 33 21 33 C19.01953125 30.83984375 19.01953125 30.83984375 16.8125 27.9375 C10.81986834 20.38871722 4.28977538 15.00862402 -3.703125 9.67578125 C-6.04858065 7.96455596 -8.00322423 6.10211028 -10 4 C-7.36 4.33 -4.72 4.66 -2 5 C-2 5.99 -2 6.98 -2 8 C-0.68 8.33 0.64 8.66 2 9 C2 8.01 2 7.02 2 6 C1.01 5.67 0.02 5.34 -1 5 C-0.67 3.35 -0.34 1.7 0 0 Z " fill="#4F89E6" transform="translate(251,164)"/>
<path d="M0 0 C0.33 0 0.66 0 1 0 C1.15987972 3.91705324 1.02624723 6.91396741 -0.125 10.6875 C-1.30316244 13.87987782 -1.30316244 13.87987782 -0.125 16.4375 C0.431875 17.2109375 0.431875 17.2109375 1 18 C2.32 17.34 3.64 16.68 5 16 C3.78224302 23.61098113 -0.91537535 28.28572539 -6.8125 32.625 C-7.40353516 33.07617188 -7.99457031 33.52734375 -8.60351562 33.9921875 C-10.38892316 35.34730598 -12.19154576 36.67584038 -14 38 C-14.9597876 38.71687988 -14.9597876 38.71687988 -15.93896484 39.44824219 C-20.76420654 43 -20.76420654 43 -23 43 C-21.71768484 40.20552073 -20.34450379 38.11589384 -18.25 35.875 C-9.4229126 25.76241443 -3.88273325 12.72673677 0 0 Z " fill="#F5FBF9" transform="translate(296,276)"/>
<path d="M0 0 C0.91609711 3.09182776 1 5.79053549 1 9 C1.29044914 10.34332728 1.60955794 11.68225804 2 13 C1.67 12.34 1.34 11.68 1 11 C0.01 11 -0.98 11 -2 11 C-1.67 13.31 -1.34 15.62 -1 18 C-1.66 18.33 -2.32 18.66 -3 19 C-3.72693904 20.97888961 -4.39816251 22.97954558 -5 25 C-3.35 25.33 -1.7 25.66 0 26 C-1.31537297 29.69867251 -2.91479265 32.44891315 -5.375 35.5 C-5.99246094 36.27214844 -6.60992187 37.04429687 -7.24609375 37.83984375 C-8.11427734 38.90912109 -8.11427734 38.90912109 -9 40 C-9.804375 41.010625 -10.60875 42.02125 -11.4375 43.0625 C-11.953125 43.701875 -12.46875 44.34125 -13 45 C-12.071875 44.34 -11.14375 43.68 -10.1875 43 C-7 41 -7 41 -4 41 C-4.33 41.99 -4.66 42.98 -5 44 C-4.67 44.66 -4.34 45.32 -4 46 C-4.515625 45.79375 -5.03125 45.5875 -5.5625 45.375 C-9.03265671 44.84112974 -11.70635791 45.92323239 -15 47 C-14.67 45.68 -14.34 44.36 -14 43 C-15.65 43 -17.3 43 -19 43 C-18.24172908 41.82512964 -17.46792245 40.66027408 -16.6875 39.5 C-16.25824219 38.8503125 -15.82898438 38.200625 -15.38671875 37.53125 C-14.92910156 37.0259375 -14.47148437 36.520625 -14 36 C-13.01 36 -12.02 36 -11 36 C-11 35.01 -11 34.02 -11 33 C-9.68 32.34 -8.36 31.68 -7 31 C-7 29.68 -7 28.36 -7 27 C-7.99 27.33 -8.98 27.66 -10 28 C-10.33 28.99 -10.66 29.98 -11 31 C-11.66 31 -12.32 31 -13 31 C-13 31.99 -13 32.98 -13 34 C-14.28965176 35.37562854 -15.62689293 36.70766393 -17 38 C-17.66 38.99 -18.32 39.98 -19 41 C-20.32 40.67 -21.64 40.34 -23 40 C-22.5875 39.63390625 -22.175 39.2678125 -21.75 38.890625 C-10.51634012 28.35906886 -3.98172476 14.68028426 0 0 Z " fill="#4E87EC" transform="translate(286,274)"/>
<path d="M0 0 C0.66 0.33 1.32 0.66 2 1 C1.50371094 1.46148437 1.00742188 1.92296875 0.49609375 2.3984375 C-8.57110867 11.10432825 -14.07049662 20.47976865 -19 32 C-19.99 31.34 -20.98 30.68 -22 30 C-22 29.34 -22 28.68 -22 28 C-22.66 27.67 -23.32 27.34 -24 27 C-23.67 26.34 -23.34 25.68 -23 25 C-24.65 25 -26.3 25 -28 25 C-28.33 25.99 -28.66 26.98 -29 28 C-29.99 27.67 -30.98 27.34 -32 27 C-31.2575 26.278125 -30.515 25.55625 -29.75 24.8125 C-27.04264561 22.15185087 -27.04264561 22.15185087 -25.1171875 19.56640625 C-18.46261429 11.49988485 -8.63790022 5.75860015 0 0 Z " fill="#EEF8FB" transform="translate(127,80)"/>
<path d="M0 0 C0.33 0 0.66 0 1 0 C1.01417969 0.99257812 1.02835938 1.98515625 1.04296875 3.0078125 C1.42552065 16.09238423 4.36999324 27.09999035 12 38 C3.64401147 35.0534941 -3.36124657 28.74162459 -10 23 C-9.34 22.67 -8.68 22.34 -8 22 C-6.86649466 19.98330173 -6.86649466 19.98330173 -6 18 C-5.34 18 -4.68 18 -4 18 C-3.67 16.68 -3.34 15.36 -3 14 C-2.01 14 -1.02 14 0 14 C0 9.38 0 4.76 0 0 Z " fill="#EEF7F9" transform="translate(149,194)"/>
<path d="M0 0 C0.33 0 0.66 0 1 0 C1.32007931 5.76142753 0.52198712 10.13920279 -1.2734375 15.609375 C-2.21213422 18.69799003 -2.56176633 21.8071547 -3 25 C-4.0625 27.9375 -4.0625 27.9375 -5 30 C-4.67 30 -4.34 30 -4 30 C-3.55948231 36.16724771 -4.21394029 40.92237477 -8 46 C-11 47 -11 47 -14 47 C-15.68798827 48.43750191 -15.68798827 48.43750191 -17 50 C-15.72854959 45.94687873 -14.20008049 42.23851825 -12.3125 38.4375 C-9.54361718 32.51875786 -7.32636525 26.50657931 -5.25 20.3125 C-4.80974487 19.01300415 -4.80974487 19.01300415 -4.3605957 17.68725586 C-2.44685779 11.85757115 -1.06989267 6.04036838 0 0 Z " fill="#4988E8" transform="translate(338,222)"/>
<path d="M0 0 C18.55504472 -0.86841083 36.02900212 6.01406246 51.75390625 15.1953125 C51.75390625 15.5253125 51.75390625 15.8553125 51.75390625 16.1953125 C50.10390625 16.1953125 48.45390625 16.1953125 46.75390625 16.1953125 C46.75390625 16.8553125 46.75390625 17.5153125 46.75390625 18.1953125 C43.88665939 17.62186313 42.89245475 17.333861 40.75390625 15.1953125 C40.75390625 13.8753125 40.75390625 12.5553125 40.75390625 11.1953125 C39.76390625 11.1953125 38.77390625 11.1953125 37.75390625 11.1953125 C37.75390625 10.5353125 37.75390625 9.8753125 37.75390625 9.1953125 C36.67109375 9.0096875 36.67109375 9.0096875 35.56640625 8.8203125 C32.75390625 8.1953125 32.75390625 8.1953125 30.50390625 7.1953125 C27.31462177 6.03557269 24.40426503 5.77632368 21.03515625 5.5390625 C18.75390625 5.1953125 18.75390625 5.1953125 16.55078125 4.1796875 C12.52740979 2.76364056 8.73680803 2.90556694 4.50390625 2.9453125 C3.29154297 2.93371094 3.29154297 2.93371094 2.0546875 2.921875 C-7.19366581 2.71202276 -7.19366581 2.71202276 -15.24609375 6.1953125 C-17.24567739 6.23612033 -19.24654629 6.23785606 -21.24609375 6.1953125 C-14.60926722 1.77076148 -7.82057707 0.68005018 0 0 Z " fill="#5689D9" transform="translate(199.24609375,147.8046875)"/>
<path d="M0 0 C0.33 0 0.66 0 1 0 C0.98952637 0.92635254 0.97905273 1.85270508 0.96826172 2.80712891 C0.93373993 6.31480504 0.9088909 9.82229513 0.89013672 13.33007812 C0.8802107 14.83499031 0.86666545 16.33988391 0.84912109 17.84472656 C0.69835411 31.12995836 1.80026573 43.63599044 5.51171875 56.4765625 C6.01454025 59.075144 5.86425087 60.52905455 5 63 C5 62.34 5 61.68 5 61 C4.34 61 3.68 61 3 61 C-0.44419134 50.62642369 -0.44419134 50.62642369 0 45 C-0.66 45 -1.32 45 -2 45 C-2.495 47.475 -2.495 47.475 -3 50 C-3.33 50 -3.66 50 -4 50 C-4.1886585 45.18920833 -3.85843547 40.83172171 -3.02734375 36.0859375 C-1.90039031 28.98902816 -1.59958363 21.9876655 -1.4375 14.8125 C-1.37779604 12.42307117 -1.31420409 10.03373524 -1.24609375 7.64453125 C-1.22216553 6.60659424 -1.1982373 5.56865723 -1.17358398 4.49926758 C-1 2 -1 2 0 0 Z " fill="#4E88DF" transform="translate(60,179)"/>
<path d="M0 0 C-1.4219875 4.59682097 -3.28165555 8.86693117 -5.375 13.1875 C-8.30636389 19.33641925 -10.83579101 25.53425761 -13 32 C-13.33 32 -13.66 32 -14 32 C-14 29.69 -14 27.38 -14 25 C-13.34 25 -12.68 25 -12 25 C-11.69350369 20.8126556 -11.69350369 20.8126556 -13.25 17.0625 C-13.4975 16.381875 -13.745 15.70125 -14 15 C-12.25 11.5625 -12.25 11.5625 -11.08203125 9.73828125 C-9.86333066 7.90118339 -9.86333066 7.90118339 -8.9375 5.25 C-6.97525436 0.54061047 -5.04344172 -0.40892771 0 0 Z " fill="#4887E6" transform="translate(79,128)"/>
<path d="M0 0 C0.33 0 0.66 0 1 0 C0.67 2.31 0.34 4.62 0 7 C-1.32 7.33 -2.64 7.66 -4 8 C-3.67 10.31 -3.34 12.62 -3 15 C-1.35 15 0.3 15 2 15 C2.33 13.68 2.66 12.36 3 11 C3.66 11.33 4.32 11.66 5 12 C2 18 -1 24 -4 30 C-4.33 27.69 -4.66 25.38 -5 23 C-4.01 23 -3.02 23 -2 23 C-2.65585189 19.39007621 -2.65585189 19.39007621 -4 16 C-4.99 16 -5.98 16 -7 16 C-7 17.32 -7 18.64 -7 20 C-7.66 20.33 -8.32 20.66 -9 21 C-10.77395195 25.11556852 -11.92758565 28.49309958 -12.5625 32.9375 C-12.706875 33.948125 -12.85125 34.95875 -13 36 C-13.99 36.495 -13.99 36.495 -15 37 C-14.51770457 23.25458014 -7.45153441 11.17730161 0 0 Z " fill="#548BE3" transform="translate(118,92)"/>
<path d="M0 0 C8.70734386 3.18182797 15.37217165 8.74306345 21 16 C18.61435923 15.42415568 16.33317216 14.77772405 14 14 C11.83284443 14.87483915 11.83284443 14.87483915 10 16 C10.33 16.66 10.66 17.32 11 18 C11.08400529 19.59447464 11.10727467 21.19240545 11.09765625 22.7890625 C11.09443359 23.73007813 11.09121094 24.67109375 11.08789062 25.640625 C11.07951172 26.62546875 11.07113281 27.6103125 11.0625 28.625 C11.05798828 29.61757812 11.05347656 30.61015625 11.04882812 31.6328125 C11.03702145 34.0886016 11.020554 36.54427104 11 39 C10.67 39 10.34 39 10 39 C9.98582031 37.77925781 9.97164062 36.55851562 9.95703125 35.30078125 C9.63280097 21.86642957 7.24754622 11.54238842 0 0 Z " fill="#E5F3FC" transform="translate(240,169)"/>
<path d="M0 0 C4.29 0 8.58 0 13 0 C13 0.66 13 1.32 13 2 C17.29 2 21.58 2 26 2 C26 2.66 26 3.32 26 4 C28.97 4.495 28.97 4.495 32 5 C32 6.32 32 7.64 32 9 C32.95865509 11.33075929 32.95865509 11.33075929 36 13 C33 14 33 14 30.05859375 12.77734375 C28.84841139 12.17030422 27.64159001 11.556536 26.4375 10.9375 C17.90662756 6.73123931 9.06232297 3.8339223 0 1 C0 0.67 0 0.34 0 0 Z " fill="#4587E9" transform="translate(235,64)"/>
<path d="M0 0 C1.17633384 3.52900153 0.72675989 4.42737623 -0.40625 7.875 C-2.25528179 14.30017441 -2.53400143 20.34194586 -2.5 27 C-2.50008057 28.17103271 -2.50016113 29.34206543 -2.50024414 30.54858398 C-2.34906827 39.72765649 -0.80140103 47.89017159 2.00390625 56.59765625 C3 60 3 60 2 62 C0 59 0 59 -0.5 56.375 C-0.665 55.59125 -0.83 54.8075 -1 54 C-1.66 53.67 -2.32 53.34 -3 53 C-3.33 53.99 -3.66 54.98 -4 56 C-4.33 55.34 -4.66 54.68 -5 54 C-5.66 54 -6.32 54 -7 54 C-6.67 52.35 -6.34 50.7 -6 49 C-5.67 49 -5.34 49 -5 49 C-5 34.81 -5 20.62 -5 6 C-3.68 5.34 -2.36 4.68 -1 4 C-0.19471111 1.94999129 -0.19471111 1.94999129 0 0 Z " fill="#5E91DF" transform="translate(113,122)"/>
<path d="M0 0 C0.99 0.33 1.98 0.66 3 1 C-7.8535423 9.54836517 -19.08557658 13.20055817 -32.875 13.1875 C-33.93074219 13.1884668 -33.93074219 13.1884668 -35.0078125 13.18945312 C-40.0062047 13.13854357 -44.27467386 12.57510871 -49 11 C-49 10.67 -49 10.34 -49 10 C-44.545 9.505 -44.545 9.505 -40 9 C-40 9.66 -40 10.32 -40 11 C-38.04196493 11.05389087 -36.08351091 11.09274217 -34.125 11.125 C-33.03445312 11.14820313 -31.94390625 11.17140625 -30.8203125 11.1953125 C-27.8628949 11.30060534 -27.8628949 11.30060534 -26 9 C-22.9609375 8.8046875 -22.9609375 8.8046875 -19.375 8.875 C-17.59222656 8.90207031 -17.59222656 8.90207031 -15.7734375 8.9296875 C-14.85820312 8.95289063 -13.94296875 8.97609375 -13 9 C-13 7.02 -13 5.04 -13 3 C-11.783125 3.2475 -10.56625 3.495 -9.3125 3.75 C-5.75673919 4.22745198 -5.28614808 4.20348308 -2.1875 2 C-1.465625 1.34 -0.74375 0.68 0 0 Z " fill="#5189DD" transform="translate(229,239)"/>
<path d="M0 0 C0.495 0.99 0.495 0.99 1 2 C-3.54704167 5.67633157 -6.92024792 7.50385451 -12.65625 8.53515625 C-16.55794923 9.30899326 -20.25392316 10.68360754 -24 12 C-27.88461047 13.29487016 -31.55883956 13.1232604 -35.60546875 13.09765625 C-36.44467361 13.0962413 -37.28387848 13.09482635 -38.14851379 13.09336853 C-40.82821216 13.08777215 -43.5078269 13.07522035 -46.1875 13.0625 C-48.00455608 13.05748453 -49.82161348 13.05292171 -51.63867188 13.04882812 C-56.09248013 13.03780391 -60.54622589 13.02054178 -65 13 C-65 12.34 -65 11.68 -65 11 C-64.175 11.01571045 -63.35 11.0314209 -62.5 11.04760742 C-39.81227498 11.42267654 -20.74895187 10.5899695 0 0 Z " fill="#5B8DDB" transform="translate(245,328)"/>
<path d="M0 0 C1.32 0 2.64 0 4 0 C5.38903267 1.62053812 6.71332828 3.29705213 8 5 C9.09069093 5.83050201 10.19539395 6.64288415 11.3125 7.4375 C12.199375 8.283125 13.08625 9.12875 14 10 C13.93742523 13.19131315 13.41584723 15.16830555 12 18 C11.34 18 10.68 18 10 18 C7 12.375 7 12.375 7 9 C5.68 9.33 4.36 9.66 3 10 C0.9375 7.8125 0.9375 7.8125 -1 5 C-0.75 2.1875 -0.75 2.1875 0 0 Z " fill="#4385F3" transform="translate(130,212)"/>
<path d="M0 0 C3.5991308 5.3986962 4.26122419 10.6000073 4 17 C4.66 17 5.32 17 6 17 C6.05871491 21.29160791 6.09383483 25.58311058 6.125 29.875 C6.14175781 31.07898438 6.15851563 32.28296875 6.17578125 33.5234375 C6.21428168 40.60751691 5.76050885 47.12667175 4 54 C3.67 54 3.34 54 3 54 C3.01571045 53.19594727 3.0314209 52.39189453 3.04760742 51.56347656 C3.29813632 36.74315922 3.35177469 22.34973471 0.65625 7.7109375 C0 4 0 4 0 0 Z " fill="#558BDB" transform="translate(336,164)"/>
<path d="M0 0 C1.11375 0.3403125 1.11375 0.3403125 2.25 0.6875 C2.58 1.6775 2.91 2.6675 3.25 3.6875 C4.1575 3.625625 5.065 3.56375 6 3.5 C9.42134668 3.47963484 12.23051815 4.20941063 15.5 5.1875 C23.17234713 7.1628431 30.654116 7.0200239 38.5 6.875 C39.93878789 6.85990782 41.3775913 6.84622752 42.81640625 6.83398438 C46.29460085 6.80137918 49.77219625 6.74985489 53.25 6.6875 C53.25 7.0175 53.25 7.3475 53.25 7.6875 C36.27826813 11.32429969 17.85810431 8.9257472 1.25 4.6875 C-0.26818206 4.30970648 -1.78640914 3.93209383 -3.3046875 3.5546875 C-4.44164062 3.26851563 -5.57859375 2.98234375 -6.75 2.6875 C-4.29511132 0.41445492 -3.41240272 -0.38777304 0 0 Z " fill="#DBF0FC" transform="translate(162.75,331.3125)"/>
<path d="M0 0 C5.03131723 -0.0500552 10.06248427 -0.08602404 15.09399414 -0.10986328 C16.79974905 -0.11981874 18.50548736 -0.13338799 20.21118164 -0.15087891 C45.19921538 -0.40039231 45.19921538 -0.40039231 52 3 C52 3.66 52 4.32 52 5 C51.27296875 4.86722656 50.5459375 4.73445313 49.796875 4.59765625 C48.28867188 4.33275391 48.28867188 4.33275391 46.75 4.0625 C45.28820312 3.80146484 45.28820312 3.80146484 43.796875 3.53515625 C33.44518739 2.07612209 23.19222706 1.86928445 12.75 1.9375 C11.40755378 1.94253214 10.0651057 1.94709198 8.72265625 1.95117188 C5.4817219 1.96282991 2.24088631 1.97919226 -1 2 C-0.67 1.34 -0.34 0.68 0 0 Z " fill="#5189D7" transform="translate(182,59)"/>
<path d="M0 0 C0.66 0.33 1.32 0.66 2 1 C1.47731534 3.76276177 0.89130413 6.3260876 0 9 C-0.66 9 -1.32 9 -2 9 C-2.33 11.64 -2.66 14.28 -3 17 C-4.65 17.33 -6.3 17.66 -8 18 C-8.6875 16.3125 -8.6875 16.3125 -9 14 C-7.6875 11.25 -7.6875 11.25 -6 9 C-5.34 9 -4.68 9 -4 9 C-4.33 6.69 -4.66 4.38 -5 2 C-3.68 2 -2.36 2 -1 2 C-0.67 1.34 -0.34 0.68 0 0 Z " fill="#4384F3" transform="translate(289,283)"/>
<path d="M0 0 C1.65 1.65 3.3 3.3 5 5 C0.6269457 9.81035973 -4.46277438 13.59926143 -10 17 C-10.66 17 -11.32 17 -12 17 C-10.6877964 14.13814644 -9.23551413 11.95422026 -7.125 9.625 C-4.43087088 6.56769171 -2.18091609 3.43913691 0 0 Z " fill="#D9EFFC" transform="translate(285,302)"/>
<path d="M0 0 C0 3 0 3 -2.4375 5.5 C-3.283125 6.325 -4.12875 7.15 -5 8 C-5.33 8.99 -5.66 9.98 -6 11 C-6.99 11.495 -6.99 11.495 -8 12 C-8.495 13.2375 -8.495 13.2375 -9 14.5 C-10 17 -10 17 -12 18 C-12.65213292 20.02463255 -12.65213292 20.02463255 -13 22 C-13.66 22 -14.32 22 -15 22 C-14.67 25.3 -14.34 28.6 -14 32 C-15.98 32.495 -15.98 32.495 -18 33 C-19.04058655 23.11442776 -12.92541585 14.36374293 -7 7 C-4.75725451 4.5609052 -2.44069683 2.24039648 0 0 Z " fill="#598EDA" transform="translate(169,159)"/>
<path d="M0 0 C2.14339281 3.21508922 3.43906032 6.48260154 4.8125 10.0625 C6.96760901 15.59056172 9.32418989 20.90107347 12.1171875 26.14453125 C13 28 13 28 13 30 C11.35 30 9.7 30 8 30 C8 28.68 8 27.36 8 26 C7.34 26.33 6.68 26.66 6 27 C6.061875 26.1646875 6.12375 25.329375 6.1875 24.46875 C5.96601964 20.37136334 4.65349286 17.18684219 3 13.5 C0.93671496 8.899432 -0.38008534 5.13115213 0 0 Z " fill="#548CE5" transform="translate(66,242)"/>
<path d="M0 0 C5.91899954 5.03114961 9.51121613 13.88519035 10.23974609 21.50878906 C10.2929323 24.03342606 10.26386375 26.53858003 10.1875 29.0625 C10.17396484 29.92810547 10.16042969 30.79371094 10.14648438 31.68554688 C10.1115933 33.79064174 10.05780665 35.89540974 10 38 C9.67 38 9.34 38 9 38 C8.97421875 36.83082031 8.9484375 35.66164062 8.921875 34.45703125 C8.86557633 32.90881774 8.80822938 31.3606421 8.75 29.8125 C8.73582031 29.04357422 8.72164062 28.27464844 8.70703125 27.48242188 C8.48385713 22.28246493 7.53965357 19.98471806 4 16 C3.49609375 13.6484375 3.49609375 13.6484375 3.4375 11.375 C3.41207 8.03585984 3.41207 8.03585984 1.47265625 5.4765625 C0 4 0 4 0 0 Z " fill="#5F90E0" transform="translate(240,170)"/>
<path d="M0 0 C0.33 0 0.66 0 1 0 C1.14262816 3.06650539 1.22590307 5.44277243 0.0625 8.3125 C-1.21590597 11.54611511 -1.37599186 14.46229774 -1.55859375 17.9140625 C-2 20 -2 20 -3.50390625 21.49609375 C-5.47296115 23.47543092 -5.38883815 24.69087584 -5.5 27.4375 C-5.65496503 31.25351382 -6.50860909 33.0911686 -9 36 C-8.67774199 29.34000116 -7.41029611 23.27050276 -5.625 16.875 C-5.41593018 16.1236377 -5.20686035 15.37227539 -4.99145508 14.59814453 C-3.56576379 9.62753522 -1.8693979 4.8210788 0 0 Z " fill="#D6ECFC" transform="translate(70,146)"/>
<path d="M0 0 C0.33 0 0.66 0 1 0 C1 5.28 1 10.56 1 16 C1.66 16 2.32 16 3 16 C5.72071056 18.90299141 6.46725391 21.20440886 6.8125 25.125 C6.90144531 25.99382812 6.99039063 26.86265625 7.08203125 27.7578125 C7 30 7 30 5 32 C0.08467154 21.08094892 -0.60504297 11.85884226 0 0 Z " fill="#568CE1" transform="translate(150,192)"/>
<path d="M0 0 C0.99 0.33 1.98 0.66 3 1 C2.67 2.32 2.34 3.64 2 5 C1.01 5 0.02 5 -1 5 C-1.33 7.31 -1.66 9.62 -2 12 C-1.071875 11.34 -0.14375 10.68 0.8125 10 C4 8 4 8 7 8 C6.67 8.99 6.34 9.98 6 11 C6.33 11.66 6.66 12.32 7 13 C6.484375 12.79375 5.96875 12.5875 5.4375 12.375 C1.96734329 11.84112974 -0.70635791 12.92323239 -4 14 C-3.67 12.68 -3.34 11.36 -3 10 C-4.65 10 -6.3 10 -8 10 C-7.24172908 8.82512964 -6.46792245 7.66027408 -5.6875 6.5 C-5.25824219 5.8503125 -4.82898438 5.200625 -4.38671875 4.53125 C-3.92910156 4.0259375 -3.47148437 3.520625 -3 3 C-2.01 3 -1.02 3 0 3 C0 2.01 0 1.02 0 0 Z " fill="#4684F0" transform="translate(275,307)"/>
<path d="M0 0 C4 2.66666667 8 5.33333333 12 8 C10.25 10.0625 10.25 10.0625 8 12 C5.75 11.75 5.75 11.75 4 11 C5.3089572 14.12197478 5.3089572 14.12197478 8 16 C7.67 16.66 7.34 17.32 7 18 C4.69 16.35 2.38 14.7 0 13 C0.66 12.67 1.32 12.34 2 12 C2.46523063 10.10466658 2.46523063 10.10466658 2.625 7.9375 C2.74875 6.638125 2.8725 5.33875 3 4 C2.01 3.34 1.02 2.68 0 2 C0 1.34 0 0.68 0 0 Z " fill="#568DE1" transform="translate(140,218)"/>
<path d="M0 0 C0.99 0.33 1.98 0.66 3 1 C2.814375 2.0725 2.62875 3.145 2.4375 4.25 C2.04546506 7.61029953 2.20356064 8.91379748 3 12 C2.72949547 14.00946222 2.40632091 16.01354224 2 18 C-0.60526888 15.39473112 -1.34134224 12.82060766 -2.625 9.375 C-3.07101562 8.18648437 -3.51703125 6.99796875 -3.9765625 5.7734375 C-4.31429688 4.85820312 -4.65203125 3.94296875 -5 3 C-2.6875 1.4375 -2.6875 1.4375 0 0 Z " fill="#4B8AE3" transform="translate(331,136)"/>
<path d="M0 0 C2.71912087 2.71912087 2.6757467 5.19425496 3.2421875 8.90625 C3.80586793 11.17643181 3.80586793 11.17643181 5.9921875 12.1171875 C6.98605469 12.55417969 6.98605469 12.55417969 8 13 C9.25 15.625 9.25 15.625 10 18 C10.66 17.67 11.32 17.34 12 17 C12.95685425 21.21015871 13.13181214 23.25712373 11 27 C0 7.16864608 0 7.16864608 0 0 Z " fill="#538BDF" transform="translate(104,176)"/>
<path d="M0 0 C1.65 0.33 3.3 0.66 5 1 C5 2.98 5 4.96 5 7 C4.01 7 3.02 7 2 7 C2.33 9.31 2.66 11.62 3 14 C1.68 14 0.36 14 -1 14 C-1.33 10.7 -1.66 7.4 -2 4 C-1.34 4 -0.68 4 0 4 C0 2.68 0 1.36 0 0 Z " fill="#4386F2" transform="translate(111,108)"/>
<path d="M0 0 C0.33 0 0.66 0 1 0 C1.32008581 5.7615446 0.52596503 10.14073628 -1.27734375 15.609375 C-2.13131032 18.20073324 -2.13131032 18.20073324 -2.5 21.8125 C-3.0410077 25.26142411 -4.10031564 27.11247978 -6 30 C-6.350625 30.9075 -6.70125 31.815 -7.0625 32.75 C-8 35 -8 35 -10 36 C-8.62843402 31.36120776 -7.24074804 26.72954871 -5.7578125 22.125 C-3.4094524 14.80579886 -1.22570048 7.61031942 0 0 Z " fill="#6593DB" transform="translate(338,222)"/>
<path d="M0 0 C0.66 0.33 1.32 0.66 2 1 C1.20335937 1.76183594 1.20335937 1.76183594 0.390625 2.5390625 C-3.63464522 6.46149735 -7.10599753 10.17666255 -10 15 C-10.33 14.01 -10.66 13.02 -11 12 C-10.67 11.34 -10.34 10.68 -10 10 C-11.98 11.32 -13.96 12.64 -16 14 C-16.66 13.67 -17.32 13.34 -18 13 C-12.30821794 8.25684828 -6.159826 4.10655066 0 0 Z " fill="#D4EBFB" transform="translate(127,80)"/>
<path d="M0 0 C0.66 0 1.32 0 2 0 C1.19084114 10.92364457 -2.90572892 18.74992071 -10 27 C-10 24 -10 24 -9 23 C-8.95919217 21.00041636 -8.95745644 18.99954746 -9 17 C-7.35 16.67 -5.7 16.34 -4 16 C-4 14.68 -4 13.36 -4 12 C-3.34 12 -2.68 12 -2 12 C-1.34 8.04 -0.68 4.08 0 0 Z " fill="#588BDC" transform="translate(247,208)"/>
<path d="M0 0 C0.33 0.66 0.66 1.32 1 2 C1.66 2 2.32 2 3 2 C2.67 3.32 2.34 4.64 2 6 C2.66 6 3.32 6 4 6 C3 9 3 9 0.9375 10.1875 C0.298125 10.455625 -0.34125 10.72375 -1 11 C-1.33 10.01 -1.66 9.02 -2 8 C-2.99 8 -3.98 8 -5 8 C-4.67 5.69 -4.34 3.38 -4 1 C-2.68 1.66 -1.36 2.32 0 3 C0 2.01 0 1.02 0 0 Z " fill="#4386EE" transform="translate(125,202)"/>
<path d="M0 0 C0.33 0.66 0.66 1.32 1 2 C0.02160156 2.04898438 -0.95679688 2.09796875 -1.96484375 2.1484375 C-13.75385348 1.99482759 -13.75385348 1.99482759 -24 6 C-25.99958364 6.04080783 -28.00045254 6.04254356 -30 6 C-20.78052643 -0.14631572 -10.73307466 -0.17756925 0 0 Z " fill="#6696DC" transform="translate(208,148)"/>
<path d="M0 0 C9.1570933 2.06842578 16.8913418 6.44833986 25 11 C25 11.33 25 11.66 25 12 C22.03 12 19.06 12 16 12 C15.67 10.68 15.34 9.36 15 8 C12.80132384 6.63834401 12.80132384 6.63834401 10.125 5.75 C9.24070313 5.41484375 8.35640625 5.0796875 7.4453125 4.734375 C4.94666329 3.8561857 4.94666329 3.8561857 2 4 C2 3.34 2 2.68 2 2 C1.34 2 0.68 2 0 2 C0 1.34 0 0.68 0 0 Z " fill="#DFF3FE" transform="translate(246,68)"/>
<path d="M0 0 C0.91609711 3.09182776 1 5.79053549 1 9 C1.29044914 10.34332728 1.60955794 11.68225804 2 13 C1.67 12.34 1.34 11.68 1 11 C0.01 11 -0.98 11 -2 11 C-1.67 13.31 -1.34 15.62 -1 18 C-1.78375 18.2475 -2.5675 18.495 -3.375 18.75 C-6.32317108 20.15389099 -6.9024777 21.00675737 -8 24 C-8 20.15558374 -6.69712141 17.7553042 -5.125 14.25 C-3.00917874 9.52773225 -1.31711653 4.98714025 0 0 Z " fill="#5F93E2" transform="translate(286,274)"/>
<path d="M0 0 C1.32 0 2.64 0 4 0 C2.64018792 3.21410129 0.70615626 5.58052147 -1.5625 8.20703125 C-3.85598771 11.06765858 -5.79020563 14.15686756 -7.765625 17.2421875 C-8.17296875 17.82226562 -8.5803125 18.40234375 -9 19 C-9.33 19 -9.66 19 -10 19 C-10 17.02 -10 15.04 -10 13 C-9.01 13 -8.02 13 -7 13 C-7.33 11.68 -7.66 10.36 -8 9 C-7.34 8.67 -6.68 8.34 -6 8 C-5.34 8.33 -4.68 8.66 -4 9 C-4 7.68 -4 6.36 -4 5 C-3.01 4.34 -2.02 3.68 -1 3 C-0.67 2.01 -0.34 1.02 0 0 Z " fill="#508BDF" transform="translate(92,105)"/>
<path d="M0 0 C3.19249477 2.96647745 5.4592987 6.04963636 7.75 9.75 C8.36359375 10.73484375 8.9771875 11.7196875 9.609375 12.734375 C10.29773438 13.85585938 10.29773438 13.85585938 11 15 C10.236875 14.814375 9.47375 14.62875 8.6875 14.4375 C5.91032625 13.77180827 5.91032625 13.77180827 3 15 C3 14.34 3 13.68 3 13 C2.34 13 1.68 13 1 13 C1 12.01 1 11.02 1 10 C1.66 10 2.32 10 3 10 C2.01 6.7 1.02 3.4 0 0 Z " fill="#528DE7" transform="translate(79,272)"/>
<path d="M0 0 C0.33 0 0.66 0 1 0 C1.27338172 6.06907418 0.46092445 10.77622054 -1.5 16.5 C-1.73847656 17.22703125 -1.97695313 17.9540625 -2.22265625 18.703125 C-2.80460176 20.47223935 -3.40080457 22.23665346 -4 24 C-4.33 24 -4.66 24 -5 24 C-4.855625 23.030625 -4.71125 22.06125 -4.5625 21.0625 C-3.61317237 14.34939744 -2.8555722 7.78810683 -3 1 C-2.01 1.33 -1.02 1.66 0 2 C0 1.34 0 0.68 0 0 Z " fill="#5189DF" transform="translate(297,264)"/>
<path d="M0 0 C3.57741986 1.19247329 3.7517367 1.84020491 5.4375 5.0625 C5.86546875 5.8771875 6.2934375 6.691875 6.734375 7.53125 C7.15203125 8.3459375 7.5696875 9.160625 8 10 C8.37640625 10.6909375 8.7528125 11.381875 9.140625 12.09375 C11.70794976 16.92185328 14.68245161 22.66356992 13.54296875 28.234375 C13.36378906 28.81703125 13.18460937 29.3996875 13 30 C12.67128906 28.90945312 12.67128906 28.90945312 12.3359375 27.796875 C9.70072777 19.44133196 6.66342117 10.82789611 1.31640625 3.78125 C0 2 0 2 0 0 Z " fill="#5F8DDB" transform="translate(274,198)"/>
<path d="M0 0 C0.33 0 0.66 0 1 0 C1.12375 0.94875 1.2475 1.8975 1.375 2.875 C1.71687177 6.08667191 1.71687177 6.08667191 4 8 C4.61056087 10.02213278 5.14363995 12.06827978 5.625 14.125 C5.88539062 15.22070312 6.14578125 16.31640625 6.4140625 17.4453125 C6.60742188 18.28835937 6.80078125 19.13140625 7 20 C4.16086173 17.4107059 3.69294241 15.76168736 3 12 C2.34 11.67 1.68 11.34 1 11 C0.67 11.99 0.34 12.98 0 14 C-0.33 13.34 -0.66 12.68 -1 12 C-1.66 12 -2.32 12 -3 12 C-2.67 10.35 -2.34 8.7 -2 7 C-1.67 7 -1.34 7 -1 7 C-0.67 4.69 -0.34 2.38 0 0 Z " fill="#5189E4" transform="translate(109,164)"/>
<path d="M0 0 C4.2026393 2.63886654 7.56638098 5.36440339 11 9 C9.35 9 7.7 9 6 9 C5.34 7.35 4.68 5.7 4 4 C1.03 4.66 -1.94 5.32 -5 6 C-4 2 -4 2 -1.9375 0.75 C-1.298125 0.5025 -0.65875 0.255 0 0 Z " fill="#F2FAFC" transform="translate(133,225)"/>
<path d="M0 0 C0.33 1.32 0.66 2.64 1 4 C0.34 4 -0.32 4 -1 4 C-1 5.98 -1 7.96 -1 10 C-1.99 10.495 -1.99 10.495 -3 11 C-4.77395195 15.11556852 -5.92758565 18.49309958 -6.5625 22.9375 C-6.7790625 24.4534375 -6.7790625 24.4534375 -7 26 C-7.66 26.33 -8.32 26.66 -9 27 C-8.66897098 17.56567301 -5.24252363 7.86378544 0 0 Z " fill="#6191DE" transform="translate(112,102)"/>
<path d="M0 0 C4.29 0 8.58 0 13 0 C13 0.66 13 1.32 13 2 C15.64 2 18.28 2 21 2 C21 3.65 21 5.3 21 7 C16.13451192 6.34065816 11.74092364 5.03428754 7.125 3.4375 C6.43664062 3.20353516 5.74828125 2.96957031 5.0390625 2.72851562 C3.35796355 2.15647501 1.67877837 1.57881544 0 1 C0 0.67 0 0.34 0 0 Z " fill="#5C91DD" transform="translate(235,64)"/>
<path d="M0 0 C5.28137429 0.51525603 8.57221156 2.25477117 13 5 C13 5.33 13 5.66 13 6 C11.35 6 9.7 6 8 6 C8 6.66 8 7.32 8 8 C5.13275314 7.42655063 4.1385485 7.1385485 2 5 C2 3.68 2 2.36 2 1 C1.34 0.67 0.68 0.34 0 0 Z " fill="#4685E8" transform="translate(238,158)"/>
<path d="M0 0 C0.66 0 1.32 0 2 0 C2.33 1.98 2.66 3.96 3 6 C-3.28571429 8.42857143 -3.28571429 8.42857143 -7 7 C-6.67 5.68 -6.34 4.36 -6 3 C-4.35 3 -2.7 3 -1 3 C-0.67 2.01 -0.34 1.02 0 0 Z " fill="#4585F3" transform="translate(129,85)"/>
<path d="M0 0 C1.03881699 3.69179576 1.1363245 6.26636235 0 10 C-2.375 11.3125 -2.375 11.3125 -5 12 C-5.99 12.33 -6.98 12.66 -8 13 C-6.40956621 7.91061189 -3.2553049 4.12543357 0 0 Z " fill="#EEF6F9" transform="translate(87,117)"/>
<path d="M0 0 C1.32 0.66 2.64 1.32 4 2 C4 3.32 4 4.64 4 6 C4.61875 6.268125 5.2375 6.53625 5.875 6.8125 C8 8 8 8 10 11 C10.99 10.34 11.98 9.68 13 9 C12.34 10.98 11.68 12.96 11 15 C6.74790208 10.87675353 2.86364295 6.48717034 -1 2 C-0.67 1.34 -0.34 0.68 0 0 Z " fill="#E0F0FC" transform="translate(128,201)"/>
<path d="M0 0 C2.1925202 3.2887803 3.13101908 6.42134502 4.125 10.1875 C4.30385742 10.85789307 4.48271484 11.52828613 4.66699219 12.21899414 C5.87978746 16.98643459 6.39860983 21.11702964 6 26 C4.0034606 23.0051909 3.31442567 20.88551663 2.4375 17.4375 C1.48823644 13.617722 1.48823644 13.617722 0 10 C0.66 10 1.32 10 2 10 C1.505 8.9171875 1.505 8.9171875 1 7.8125 C-0.00603529 4.98302573 -0.16977402 2.97104534 0 0 Z " fill="#D5ECFB" transform="translate(332,154)"/>
<path d="M0 0 C1.32 0 2.64 0 4 0 C3.32418477 6.08233706 2.26361972 12.01314152 1 18 C0.67 18 0.34 18 0 18 C-0.19384179 15.18780295 -0.38036603 12.37545804 -0.5625 9.5625 C-0.61857422 8.76005859 -0.67464844 7.95761719 -0.73242188 7.13085938 C-0.8616295 5.08937889 -0.9351273 3.04453631 -1 1 C-0.67 0.67 -0.34 0.34 0 0 Z " fill="#5388E2" transform="translate(61,160)"/>
<path d="M0 0 C-3.19123852 2.12749234 -6.50674408 3.80763537 -9.9375 5.5 C-10.86852539 5.96212891 -10.86852539 5.96212891 -11.81835938 6.43359375 C-13.54489649 7.29042687 -15.27241612 8.14527939 -17 9 C-18.33375986 9.66581292 -19.66733534 10.33199766 -21 11 C-21 10.34 -21 9.68 -21 9 C-20.01 8.34 -19.02 7.68 -18 7 C-17.7525 6.319375 -17.505 5.63875 -17.25 4.9375 C-16.8375 4.298125 -16.425 3.65875 -16 3 C-12.625 2.375 -12.625 2.375 -9 2 C-8.29875 1.649375 -7.5975 1.29875 -6.875 0.9375 C-4.49181915 -0.25409043 -2.62772904 -0.14598495 0 0 Z " fill="#5C8DDA" transform="translate(169,65)"/>
<path d="M0 0 C2.875 -0.1875 2.875 -0.1875 6 0 C6.66 0.99 7.32 1.98 8 3 C10.40972598 4.01324326 10.40972598 4.01324326 13.125 4.6875 C14.03507813 4.93886719 14.94515625 5.19023437 15.8828125 5.44921875 C16.58148438 5.63097656 17.28015625 5.81273437 18 6 C18 6.66 18 7.32 18 8 C19.32 8.33 20.64 8.66 22 9 C21.01 9.495 21.01 9.495 20 10 C17.50151716 9.16027322 15.11623483 8.25946462 12.6875 7.25 C12.02298828 6.98445312 11.35847656 6.71890625 10.67382812 6.4453125 C6.91359638 4.91295297 3.38381186 3.27769154 0 1 C0 0.67 0 0.34 0 0 Z " fill="#5D8FDA" transform="translate(154,239)"/>
<path d="M0 0 C0.33 0 0.66 0 1 0 C1.07408587 4.09333905 1.1285704 8.18641933 1.16479492 12.28027344 C1.17989358 13.67324622 1.20037444 15.06617138 1.22631836 16.45898438 C1.26265122 18.45942885 1.27811192 20.46021827 1.29296875 22.4609375 C1.3086792 23.66540527 1.32438965 24.86987305 1.34057617 26.11083984 C1.22818604 27.0642627 1.1157959 28.01768555 1 29 C0.01 29.66 -0.98 30.32 -2 31 C-1.34 20.77 -0.68 10.54 0 0 Z " fill="#6A96E0" transform="translate(290,240)"/>
<path d="M0 0 C0.78375 0.144375 1.5675 0.28875 2.375 0.4375 C6.19383002 1.03007707 9.97225189 1.30143268 13.828125 1.5234375 C16 2 16 2 18 5 C18 5.99 18 6.98 18 8 C13.78224268 6.64474464 9.70578678 5.09799886 5.625 3.375 C4.56539062 2.92898437 3.50578125 2.48296875 2.4140625 2.0234375 C1.61742187 1.68570313 0.82078125 1.34796875 0 1 C0 0.67 0 0.34 0 0 Z " fill="#D8EEFC" transform="translate(228,152)"/>
<path d="M0 0 C1.32 0 2.64 0 4 0 C2.35433477 5.68502535 -0.29032784 10.76681636 -3 16 C-3.625 14.1875 -3.625 14.1875 -4 12 C-3.34 11.01 -2.68 10.02 -2 9 C-2.33 8.01 -2.66 7.02 -3 6 C-1.5625 2.8125 -1.5625 2.8125 0 0 Z " fill="#538BE3" transform="translate(75,128)"/>
<path d="M0 0 C1.60879422 0.39842559 3.21198173 0.81953157 4.8125 1.25 C5.70582031 1.48203125 6.59914063 1.7140625 7.51953125 1.953125 C11.37047643 3.5784058 12.57489872 6.01555494 14.1875 9.75 C14.455625 10.4925 14.72375 11.235 15 12 C9.77262551 8.64911892 4.74151617 5.01448369 0 1 C0 0.67 0 0.34 0 0 Z " fill="#578FDC" transform="translate(282,86)"/>
<path d="M0 0 C6.15234375 0.5859375 6.15234375 0.5859375 8 1 C8.33 1.66 8.66 2.32 9 3 C11.52733235 3.65555119 11.52733235 3.65555119 14 4 C14 4.66 14 5.32 14 6 C4.595 4.515 4.595 4.515 -5 3 C-5 2.67 -5 2.34 -5 2 C-3.35 1.67 -1.7 1.34 0 1 C0 0.67 0 0.34 0 0 Z " fill="#D7E8F9" transform="translate(213,146)"/>
<path d="M0 0 C0.33 0.66 0.66 1.32 1 2 C0.0625 4.625 0.0625 4.625 -1 7 C-1.66 7 -2.32 7 -3 7 C-3 7.99 -3 8.98 -3 10 C-4.28965176 11.37562854 -5.62689293 12.70766393 -7 14 C-7.99 15.485 -7.99 15.485 -9 17 C-10.32 16.67 -11.64 16.34 -13 16 C-12.56429688 15.59910156 -12.12859375 15.19820313 -11.6796875 14.78515625 C-6.97755974 10.29676157 -3.41638401 5.51877416 0 0 Z " fill="#5A8DDF" transform="translate(276,298)"/>
<path d="M0 0 C0.33 0.99 0.66 1.98 1 3 C-1.89912232 7.09287857 -4.48652248 9.67878299 -9 12 C-9.99 11.34 -10.98 10.68 -12 10 C-11.30132812 9.52949219 -10.60265625 9.05898437 -9.8828125 8.57421875 C-8.97273437 7.95160156 -8.06265625 7.32898438 -7.125 6.6875 C-6.22007812 6.07261719 -5.31515625 5.45773438 -4.3828125 4.82421875 C-1.80028615 3.05086051 -1.80028615 3.05086051 0 0 Z " fill="#DCEFFB" transform="translate(236,235)"/>
<path d="M0 0 C2 2 2 2 2 5 C1.01 5 0.02 5 -1 5 C-1 5.99 -1 6.98 -1 8 C-3.4375 7.25 -3.4375 7.25 -6 6 C-6.8125 3.875 -6.8125 3.875 -7 2 C-5.824375 1.7834375 -5.824375 1.7834375 -4.625 1.5625 C-2.03578982 1.12201075 -2.03578982 1.12201075 0 0 Z " fill="#4585F4" transform="translate(151,227)"/>
<path d="M0 0 C4.8 3.32307692 4.8 3.32307692 5.8125 6.75 C5.874375 7.4925 5.93625 8.235 6 9 C4.35 9.66 2.7 10.32 1 11 C0 8 0 8 1 5 C0.34 5 -0.32 5 -1 5 C-0.67 3.35 -0.34 1.7 0 0 Z " fill="#4585F8" transform="translate(266,178)"/>
<path d="M0 0 C5.72858491 5.54379185 11.57298662 11.35947993 16 18 C12.66134002 16.55424099 10.51928597 14.73285462 8 12.125 C7.34 11.44695312 6.68 10.76890625 6 10.0703125 C5.34 9.38710938 4.68 8.70390625 4 8 C3.2575 7.33742188 2.515 6.67484375 1.75 5.9921875 C0 4 0 4 0 0 Z " fill="#5A8BD8" transform="translate(90,287)"/>
<path d="M0 0 C3.24656588 3.24656588 4.83869305 6.92605345 5.19140625 11.4609375 C5.18795561 13.64864274 5.13367502 15.81664131 5 18 C5.66 18 6.32 18 7 18 C6.67 18.99 6.34 19.98 6 21 C3.31612245 18.31612245 2.90453004 15.82898587 1.875 12.1875 C1.52179688 10.96417969 1.16859375 9.74085938 0.8046875 8.48046875 C0.11068235 5.47872805 -0.17454331 3.05450799 0 0 Z " fill="#E1F2FE" transform="translate(111,163)"/>
<path d="M0 0 C3.06273831 -0.05410136 6.12451452 -0.09372225 9.1875 -0.125 C10.48397461 -0.15013672 10.48397461 -0.15013672 11.80664062 -0.17578125 C16.32208103 -0.21038233 19.90081483 -0.15567916 24 2 C24 2.66 24 3.32 24 4 C23.27296875 3.86722656 22.5459375 3.73445313 21.796875 3.59765625 C14.54202272 2.32340655 7.34805008 1.49508139 0 1 C0 0.67 0 0.34 0 0 Z " fill="#6591E2" transform="translate(210,60)"/>
<path d="M0 0 C4.95 2.31 9.9 4.62 15 7 C10.32505882 8.16873529 8.08307918 8.59463171 3.8125 6.25 C1 4 1 4 0 0 Z " fill="#E3F1FC" transform="translate(153,239)"/>
<path d="M0 0 C1.78139294 3.23606752 2.77180919 6.42657245 3.6875 10 C3.95949219 11.03125 4.23148437 12.0625 4.51171875 13.125 C4.98122716 15.88946552 4.93214283 17.39750728 4 20 C4 19.34 4 18.68 4 18 C3.34 18 2.68 18 2 18 C-0.61281488 12.12116651 -0.18328202 6.29268272 0 0 Z " fill="#6392DE" transform="translate(61,222)"/>
<path d="M0 0 C2 1.375 2 1.375 4 3 C4 3.66 4 4.32 4 5 C5.175625 5.0928125 5.175625 5.0928125 6.375 5.1875 C7.674375 5.5896875 7.674375 5.5896875 9 6 C10.3125 8.5625 10.3125 8.5625 11 11 C5.59510481 9.47987323 2.01507372 5.72614782 -2 2 C-1.34 1.34 -0.68 0.68 0 0 Z " fill="#D9EDFB" transform="translate(141,215)"/>
<path d="M0 0 C0.66 0.33 1.32 0.66 2 1 C-0.08813525 3.48969972 -1.46544814 4.8472709 -4.625 5.75 C-9.08998722 6.08073979 -13.52528707 6.07958976 -18 6 C-18 5.67 -18 5.34 -18 5 C-17.11957031 4.80664062 -16.23914063 4.61328125 -15.33203125 4.4140625 C-14.17058594 4.15367187 -13.00914062 3.89328125 -11.8125 3.625 C-10.66394531 3.36976563 -9.51539063 3.11453125 -8.33203125 2.8515625 C-5.03952539 2.09481584 -5.03952539 2.09481584 -2.19921875 0.8359375 C-1.47347656 0.56007812 -0.74773437 0.28421875 0 0 Z " fill="#D0E9FB" transform="translate(222,246)"/>
<path d="M0 0 C-3.3418185 2.227879 -5.49838394 2.59283208 -9.4375 3.1875 C-11.13712891 3.45626953 -11.13712891 3.45626953 -12.87109375 3.73046875 C-15.64970278 3.96982458 -17.40071185 3.90049049 -20 3 C-13.21256822 0.18447274 -7.31110994 -0.3689719 0 0 Z " fill="#D0E8FB" transform="translate(192,61)"/>
<path d="M0 0 C0.66 0 1.32 0 2 0 C2.82351864 6.38226945 3.12086218 12.56744599 3 19 C2.67 19 2.34 19 2 19 C0.48766299 12.53205867 -0.21432579 6.64409958 0 0 Z " fill="#DDF1FD" transform="translate(61,213)"/>
<path d="M0 0 C2.125 0.375 2.125 0.375 4 1 C3.06862408 2.29608947 2.1296434 3.58671632 1.1875 4.875 C0.66542969 5.59429687 0.14335937 6.31359375 -0.39453125 7.0546875 C-2 9 -2 9 -5 11 C-5 9.68 -5 8.36 -5 7 C-4.01 7 -3.02 7 -2 7 C-2.061875 5.824375 -2.061875 5.824375 -2.125 4.625 C-2 2 -2 2 0 0 Z " fill="#5888E5" transform="translate(279,305)"/>
<path d="M0 0 C4.92908146 3.87792288 8.5423711 7.76116833 12 13 C9.37812506 11.95125002 8.20628639 11.35068687 6.75 8.875 C6.5025 8.25625 6.255 7.6375 6 7 C4.68 7 3.36 7 2 7 C1.67 6.01 1.34 5.02 1 4 C0.34 3.67 -0.32 3.34 -1 3 C-0.67 2.01 -0.34 1.02 0 0 Z " fill="#5B8CD9" transform="translate(128,205)"/>
<path d="M0 0 C2.11389144 2.74369391 4.04289423 5.52175859 5.8125 8.5 C6.27269531 9.2528125 6.73289062 10.005625 7.20703125 10.78125 C8 13 8 13 7.13671875 15.28125 C6.57404297 16.13203125 6.57404297 16.13203125 6 17 C6 15.35 6 13.7 6 12 C5.01 12 4.02 12 3 12 C3 10.68 3 9.36 3 8 C2.34 8 1.68 8 1 8 C0.67 5.36 0.34 2.72 0 0 Z " fill="#5E91DC" transform="translate(116,184)"/>
<path d="M0 0 C3.465 1.485 3.465 1.485 7 3 C7 5 7 5 5.625 6.625 C4 8 4 8 2 8 C2 7.01 2 6.02 2 5 C0.68 5 -0.64 5 -2 5 C-2 4.01 -2 3.02 -2 2 C-1.34 2 -0.68 2 0 2 C0 1.34 0 0.68 0 0 Z " fill="#4386F6" transform="translate(258,173)"/>
<path d="M0 0 C4.22460725 3.66873787 5.9772021 6.47689134 7 12 C6.67 12.99 6.34 13.98 6 15 C5.01 14.67 4.02 14.34 3 14 C3 13.01 3 12.02 3 11 C3.66 11 4.32 11 5 11 C5 9.68 5 8.36 5 7 C4.360625 6.773125 3.72125 6.54625 3.0625 6.3125 C1 5 1 5 0.25 2.375 C0.1675 1.59125 0.085 0.8075 0 0 Z " fill="#EBF4F7" transform="translate(262,185)"/>
<path d="M0 0 C1.9375 0.8125 1.9375 0.8125 4 2 C4.33 2.99 4.66 3.98 5 5 C5.99 5 6.98 5 8 5 C8 5.99 8 6.98 8 8 C8.99 8.33 9.98 8.66 11 9 C11 9.99 11 10.98 11 12 C11.66 12.33 12.32 12.66 13 13 C12.01 13 11.02 13 10 13 C7.7734375 10.6640625 7.7734375 10.6640625 5.375 7.625 C4.57835937 6.62726563 3.78171875 5.62953125 2.9609375 4.6015625 C1 2 1 2 0 0 Z " fill="#5A8ADC" transform="translate(262,184)"/>
<path d="M0 0 C0.6875 1.6875 0.6875 1.6875 1 4 C-0.3125 6.5625 -0.3125 6.5625 -2 9 C-2.99 10.485 -2.99 10.485 -4 12 C-4.66 12 -5.32 12 -6 12 C-6 10.35 -6 8.7 -6 7 C-5.01 7 -4.02 7 -3 7 C-2.87625 6.21625 -2.7525 5.4325 -2.625 4.625 C-2 2 -2 2 0 0 Z " fill="#4D87E9" transform="translate(238,227)"/>
<path d="M0 0 C0.66 0 1.32 0 2 0 C2.25394531 0.51949219 2.50789063 1.03898438 2.76953125 1.57421875 C4.34096909 4.75829318 5.88623785 7.82347253 7.8125 10.8125 C8.204375 11.534375 8.59625 12.25625 9 13 C8.67 13.99 8.34 14.98 8 16 C6.66141476 13.71125827 5.32898986 11.41930344 4 9.125 C3.6184375 8.47402344 3.236875 7.82304687 2.84375 7.15234375 C0 2.2265625 0 2.2265625 0 0 Z " fill="#DFF5FE" transform="translate(117,184)"/>
<path d="M0 0 C3.125 0.375 3.125 0.375 6 1 C3.47211993 3.79872437 1.79588866 5.45773019 -2 6 C-2 2 -2 2 0 0 Z " fill="#EAF6FA" transform="translate(243,324)"/>
<path d="M0 0 C6 7.76470588 6 7.76470588 6 12 C2.125 11.125 2.125 11.125 1 10 C0.76712992 8.31816052 0.58735834 6.6287584 0.4375 4.9375 C0.35371094 4.01839844 0.26992187 3.09929687 0.18359375 2.15234375 C0.09271484 1.08693359 0.09271484 1.08693359 0 0 Z " fill="#DCF2FC" transform="translate(107,188)"/>
<path d="M0 0 C3.93673644 1.31224548 6.22719294 2.91910327 9 6 C8.01 6 7.02 6 6 6 C6.33 7.65 6.66 9.3 7 11 C4.04250209 7.53258866 1.92151848 4.13126473 0 0 Z " fill="#D7F1FE" transform="translate(240,169)"/>
<path d="M0 0 C0.33 2.64 0.66 5.28 1 8 C-0.32 8 -1.64 8 -3 8 C-3.33 5.69 -3.66 3.38 -4 1 C-1 0 -1 0 0 0 Z " fill="#4783F7" transform="translate(118,99)"/>
<path d="M0 0 C0.99 0.33 1.98 0.66 3 1 C-1.24740335 4.45101522 -5.61105071 7.73279209 -10 11 C-10 10.01 -10 9.02 -10 8 C-8.37064759 6.62131719 -6.70250393 5.28725907 -5 4 C-4.67 3.34 -4.34 2.68 -4 2 C-2.68 2 -1.36 2 0 2 C0 1.34 0 0.68 0 0 Z " fill="#598CDB" transform="translate(116,85)"/>
<path d="M0 0 C0.66 0.33 1.32 0.66 2 1 C0.71451591 2.33929505 -0.57858155 3.67128643 -1.875 5 C-2.59429687 5.7425 -3.31359375 6.485 -4.0546875 7.25 C-6 9 -6 9 -8 9 C-8.33 8.01 -8.66 7.02 -9 6 C-6.03 4.02 -3.06 2.04 0 0 Z " fill="#C4E2FC" transform="translate(127,80)"/>
<path d="M0 0 C0.66 0.33 1.32 0.66 2 1 C1.67 1.99 1.34 2.98 1 4 C1.33 4.66 1.66 5.32 2 6 C1.484375 5.79375 0.96875 5.5875 0.4375 5.375 C-3.03265671 4.84112974 -5.70635791 5.92323239 -9 7 C-8.67 5.68 -8.34 4.36 -8 3 C-8.66 2.67 -9.32 2.34 -10 2 C-9.01 1.67 -8.02 1.34 -7 1 C-7 2.32 -7 3.64 -7 5 C-3.32159111 2.72692336 -3.32159111 2.72692336 0 0 Z " fill="#5992E7" transform="translate(280,314)"/>
<path d="M0 0 C0.33 0 0.66 0 1 0 C1.32693436 3.59627792 1.47194463 5.37635888 -0.75 8.3125 C-2.97904693 9.9842852 -4.33721181 10.43499662 -7 11 C-5.85845641 9.16399255 -4.71165684 7.33125195 -3.5625 5.5 C-2.92441406 4.4790625 -2.28632813 3.458125 -1.62890625 2.40625 C-0.82259766 1.21515625 -0.82259766 1.21515625 0 0 Z " fill="#DFF1FD" transform="translate(244,224)"/>
<path d="M0 0 C5 2 5 2 6.14453125 4.1640625 C6.36496094 4.97617188 6.58539063 5.78828125 6.8125 6.625 C7.04582031 7.44226563 7.27914063 8.25953125 7.51953125 9.1015625 C7.67808594 9.72804687 7.83664062 10.35453125 8 11 C7.01 11.495 7.01 11.495 6 12 C4.02 8.04 2.04 4.08 0 0 Z " fill="#E1F4FD" transform="translate(285,198)"/>
<path d="M0 0 C0.99 0.33 1.98 0.66 3 1 C4.66362417 1.34820041 6.32995171 1.68404492 8 2 C5.14521674 3.90318884 3.58058692 4.4619099 0.3125 5.125 C-0.49574219 5.29257813 -1.30398437 5.46015625 -2.13671875 5.6328125 C-2.75160156 5.75398438 -3.36648437 5.87515625 -4 6 C-2.68 4.02 -1.36 2.04 0 0 Z " fill="#5288E0" transform="translate(173,59)"/>
<path d="M0 0 C5.28 2.31 10.56 4.62 16 7 C11.12239864 8.21940034 10.07295382 7.3649428 5.75 5.0625 C4.67234375 4.49660156 3.5946875 3.93070312 2.484375 3.34765625 C1.66453125 2.90292969 0.8446875 2.45820313 0 2 C0 1.34 0 0.68 0 0 Z " fill="#5A8CDE" transform="translate(132,323)"/>
<path d="M0 0 C5.00099548 2.65848126 9.7045025 5.25876024 14 9 C9.61110675 8.33501617 6.0188515 6.81242323 2 5 C2 4.01 2 3.02 2 2 C1.34 2 0.68 2 0 2 C0 1.34 0 0.68 0 0 Z " fill="#5E91DD" transform="translate(118,314)"/>
<path d="M0 0 C1.90747183 2.86120775 3.00353706 5.35254993 4.1875 8.5625 C4.55230469 9.53316406 4.91710937 10.50382813 5.29296875 11.50390625 C6 14 6 14 5 16 C1.35072102 12.35072102 0.08414817 7.57076592 -0.1875 2.5 C-0.125625 1.675 -0.06375 0.85 0 0 Z " fill="#6598DD" transform="translate(66,242)"/>
<path d="M0 0 C1 3 1 3 -0.4375 6.1875 C-1.2109375 7.5796875 -1.2109375 7.5796875 -2 9 C-3.65 9 -5.3 9 -7 9 C-2.85714286 2.57142857 -2.85714286 2.57142857 0 0 Z " fill="#E2F0FC" transform="translate(135,87)"/>
<path d="M0 0 C0.66 0 1.32 0 2 0 C0.68938409 4.23429756 -0.94356259 8.07407404 -3 12 C-3.33 12 -3.66 12 -4 12 C-4.125 6.25 -4.125 6.25 -3 4 C-2.34 4 -1.68 4 -1 4 C-0.67 2.68 -0.34 1.36 0 0 Z " fill="#5488DD" transform="translate(290,288)"/>
<path d="M0 0 C0.33 0 0.66 0 1 0 C1.57042254 10.88028169 1.57042254 10.88028169 -2 15 C-2.66 15 -3.32 15 -4 15 C-3.69255859 14.00419922 -3.69255859 14.00419922 -3.37890625 12.98828125 C-3.10949219 12.10527344 -2.84007812 11.22226563 -2.5625 10.3125 C-2.29566406 9.44238281 -2.02882812 8.57226562 -1.75390625 7.67578125 C-1.03655471 5.12974079 -0.482459 2.5996577 0 0 Z " fill="#D5EDFC" transform="translate(249,208)"/>
<path d="M0 0 C0.96392528 2.99887865 1.35886391 5.08814875 0 8 C-2.5625 9.25 -2.5625 9.25 -5 10 C-3.66511872 6.40608886 -2.03977277 3.24509304 0 0 Z " fill="#E3EFFA" transform="translate(127,96)"/>
<path d="M0 0 C0 3 0 3 -1.5625 5.5625 C-4.52898842 8.52898842 -6.94706164 9.14264765 -11 10 C-7.50640535 6.40365256 -3.88901869 3.16548033 0 0 Z " fill="#6195E1" transform="translate(262,315)"/>
<path d="M0 0 C2.96404505 2.80804268 5.44499019 5.18315774 7 9 C4 9 4 9 2.3125 7.75 C1 6 1 6 1 2 C0.34 1.67 -0.32 1.34 -1 1 C-0.67 0.67 -0.34 0.34 0 0 Z " fill="#E4F3FB" transform="translate(116,205)"/>
<path d="M0 0 C3.465 1.98 3.465 1.98 7 4 C6.01 4.66 5.02 5.32 4 6 C4 6.99 4 7.98 4 9 C2 8 2 8 1.3671875 6.15234375 C1.20476562 5.42144531 1.04234375 4.69054687 0.875 3.9375 C0.70742187 3.20402344 0.53984375 2.47054687 0.3671875 1.71484375 C0.24601563 1.14894531 0.12484375 0.58304688 0 0 Z " fill="#508AE3" transform="translate(152,227)"/>
<path d="M0 0 C2.5999298 2.51027705 4.99091227 4.9863684 7 8 C7 8.66 7 9.32 7 10 C5 10 5 10 3 8.0625 C2.34 7.381875 1.68 6.70125 1 6 C0.34 5.67 -0.32 5.34 -1 5 C-0.67 3.35 -0.34 1.7 0 0 Z " fill="#5A8FE2" transform="translate(276,186)"/>
<path d="M0 0 C2.64 0.33 5.28 0.66 8 1 C8.12375 1.639375 8.2475 2.27875 8.375 2.9375 C8.58125 3.618125 8.7875 4.29875 9 5 C9.66 5.33 10.32 5.66 11 6 C10.67 6.66 10.34 7.32 10 8 C8.33055479 6.85821872 6.6645052 5.71147095 5 4.5625 C4.071875 3.92441406 3.14375 3.28632813 2.1875 2.62890625 C1.465625 2.09136719 0.74375 1.55382812 0 1 C0 0.67 0 0.34 0 0 Z " fill="#5B8FDD" transform="translate(241,168)"/>
<path d="M0 0 C1.10844919 3.32534757 0.84454356 5.62182575 0 9 C-0.66 9 -1.32 9 -2 9 C-2 9.66 -2 10.32 -2 11 C-2.99 11.33 -3.98 11.66 -5 12 C-3.68938409 7.76570244 -2.05643741 3.92592596 0 0 Z " fill="#E1EFFD" transform="translate(78,130)"/>
<path d="M0 0 C4.20233434 2.41952583 8.07927649 5.15555353 12 8 C9 9 9 9 6.8125 8.0625 C6.214375 7.711875 5.61625 7.36125 5 7 C5 6.34 5 5.68 5 5 C4.360625 4.731875 3.72125 4.46375 3.0625 4.1875 C1 3 1 3 0 0 Z " fill="#578BD8" transform="translate(106,305)"/>
<path d="M0 0 C2.8125 -0.25 2.8125 -0.25 6 0 C8.04040776 2.04040776 9 3.08325244 9 6 C5.06326356 4.68775452 2.77280706 3.08089673 0 0 Z " fill="#E1EEFB" transform="translate(248,161)"/>
<path d="M0 0 C3.3125 -0.1875 3.3125 -0.1875 7 0 C7.99 0.99 8.98 1.98 10 3 C7.03 3 4.06 3 1 3 C0.67 2.01 0.34 1.02 0 0 Z " fill="#EAF6F9" transform="translate(261,77)"/>
<path d="M0 0 C1.231394 2.46278801 1.07159196 4.2795055 1 7 C-0.98 7 -2.96 7 -5 7 C-3.47793991 4.37098712 -2.15634036 2.15634036 0 0 Z " fill="#5A95E2" transform="translate(301,296)"/>
<path d="M0 0 C0.66 0.33 1.32 0.66 2 1 C0.68938409 5.23429756 -0.94356259 9.07407404 -3 13 C-3.6875 11.3125 -3.6875 11.3125 -4 9 C-2.625 6.5 -2.625 6.5 -1 4 C-0.30420546 1.80869466 -0.30420546 1.80869466 0 0 Z " fill="#DDEEFE" transform="translate(324,259)"/>
<path d="M0 0 C2.61527381 2.36620011 4.26440562 4.942048 6 8 C2.06326356 6.68775452 -0.22719294 5.08089673 -3 2 C-2.01 2 -1.02 2 0 2 C0 1.34 0 0.68 0 0 Z " fill="#C8E9FE" transform="translate(155,224)"/>
<path d="M0 0 C0.33 0 0.66 0 1 0 C0.67 2.31 0.34 4.62 0 7 C-1.65 7.66 -3.3 8.32 -5 9 C-3.75471468 5.55151758 -2.38532951 2.80016942 0 0 Z " fill="#6492E3" transform="translate(118,92)"/>
<path d="M0 0 C0.66 0.33 1.32 0.66 2 1 C-0.31 4.3 -2.62 7.6 -5 11 C-5.33 10.01 -5.66 9.02 -6 8 C-4.78515625 5.95703125 -4.78515625 5.95703125 -3.0625 3.8125 C-2.49660156 3.09707031 -1.93070312 2.38164062 -1.34765625 1.64453125 C-0.90292969 1.10183594 -0.45820313 0.55914062 0 0 Z " fill="#E1F4FE" transform="translate(318,272)"/>
<path d="M0 0 C2.475 0.99 2.475 0.99 5 2 C3.71034824 3.37562854 2.37310707 4.70766393 1 6 C0.34 6 -0.32 6 -1 6 C-1.33 5.01 -1.66 4.02 -2 3 C-1.34 2.01 -0.68 1.02 0 0 Z " fill="#5088E9" transform="translate(147,224)"/>
<path d="M0 0 C2.64752004 2.57784846 4.94432065 4.91648098 7 8 C6.01 8 5.02 8 4 8 C4 7.34 4 6.68 4 6 C2.68 5.67 1.36 5.34 0 5 C0 3.35 0 1.7 0 0 Z " fill="#DBEFF9" transform="translate(124,215)"/>
<path d="M0 0 C2 1 2 1 2.8515625 3.06640625 C3.10679687 3.89011719 3.36203125 4.71382812 3.625 5.5625 C3.88539063 6.38878906 4.14578125 7.21507812 4.4140625 8.06640625 C4.60742188 8.70449219 4.80078125 9.34257812 5 10 C4.01 10.495 4.01 10.495 3 11 C0 4.5 0 4.5 0 0 Z " fill="#D9EDFD" transform="translate(280,210)"/>
<path d="M0 0 C-1.26691507 0.67408308 -2.53870749 1.33900497 -3.8125 2 C-4.52019531 2.37125 -5.22789062 2.7425 -5.95703125 3.125 C-8 4 -8 4 -11 4 C-11 3.34 -11 2.68 -11 2 C-9.54494642 1.47007308 -8.08581873 0.9513211 -6.625 0.4375 C-5.81289062 0.14746094 -5.00078125 -0.14257812 -4.1640625 -0.44140625 C-2 -1 -2 -1 0 0 Z " fill="#D9EFFD" transform="translate(240,331)"/>
<path d="M0 0 C0.66 0 1.32 0 2 0 C0.6302836 3.99500618 -1.25722422 6.80009492 -4 10 C-4 8.35 -4 6.7 -4 5 C-3.34 5 -2.68 5 -2 5 C-1.34 3.35 -0.68 1.7 0 0 Z " fill="#D9F0FD" transform="translate(158,168)"/>
<path d="M0 0 C3.3 1.65 6.6 3.3 10 5 C7 6 7 6 4.4375 5.3125 C2 4 2 4 0 0 Z " fill="#598EE1" transform="translate(241,158)"/>
<path d="M0 0 C0.66 0.99 1.32 1.98 2 3 C1.360625 3.103125 0.72125 3.20625 0.0625 3.3125 C-0.618125 3.539375 -1.29875 3.76625 -2 4 C-2.33 4.99 -2.66 5.98 -3 7 C-3.99 6.67 -4.98 6.34 -6 6 C-4 4 -2 2 0 0 Z " fill="#E0F3FB" transform="translate(101,101)"/>
<path d="M0 0 C0 0.33 0 0.66 0 1 C-6.28571429 3.42857143 -6.28571429 3.42857143 -10 2 C-10 1.34 -10 0.68 -10 0 C-3.375 -1.125 -3.375 -1.125 0 0 Z " fill="#F6FCF1" transform="translate(238,330)"/>
<path d="M0 0 C0.33 0 0.66 0 1 0 C1.3636198 4.24223102 0.5393228 6.58168085 -2 10 C-2.66 10 -3.32 10 -4 10 C-2.8905928 6.51329166 -1.73662334 3.22515763 0 0 Z " fill="#D2E8FC" transform="translate(292,288)"/>
<path d="M0 0 C0.33 0.66 0.66 1.32 1 2 C1.66 2 2.32 2 3 2 C3.33 3.98 3.66 5.96 4 8 C2.02 6.35 0.04 4.7 -2 3 C-1.34 2.67 -0.68 2.34 0 2 C0 1.34 0 0.68 0 0 Z " fill="#D9EAF7" transform="translate(268,173)"/>
<path d="M0 0 C1.32 0 2.64 0 4 0 C3.25 4.75 3.25 4.75 1 7 C0.67 4.69 0.34 2.38 0 0 Z " fill="#3C89EF" transform="translate(121,94)"/>
<path d="M0 0 C4.55737263 0.43820891 7.57653445 0.85041169 11 4 C8 5 8 5 5.95703125 4.22265625 C5.24933594 3.83980469 4.54164063 3.45695312 3.8125 3.0625 C3.09707031 2.68222656 2.38164062 2.30195312 1.64453125 1.91015625 C1.10183594 1.60980469 0.55914062 1.30945313 0 1 C0 0.67 0 0.34 0 0 Z " fill="#5D8FE4" transform="translate(260,73)"/>
<path d="M0 0 C0.66 0.33 1.32 0.66 2 1 C0.02 3.31 -1.96 5.62 -4 8 C-4.33 7.01 -4.66 6.02 -5 5 C-3.35 3.35 -1.7 1.7 0 0 Z " fill="#DDEDFD" transform="translate(270,304)"/>
<path d="M0 0 C-1.33332095 3.99996286 -3.4957827 4.83782337 -7 7 C-7 5.68 -7 4.36 -7 3 C-6.01 3 -5.02 3 -4 3 C-4 2.34 -4 1.68 -4 1 C-2 0 -2 0 0 0 Z " fill="#DEF0FE" transform="translate(297,300)"/>
<path d="M0 0 C0.33 0 0.66 0 1 0 C1.25 3.25 1.25 3.25 1 7 C-0.32 8.32 -1.64 9.64 -3 11 C-2.01 7.37 -1.02 3.74 0 0 Z " fill="#CFE7FB" transform="translate(296,276)"/>
<path d="M0 0 C0.66 0.33 1.32 0.66 2 1 C2 4.3 2 7.6 2 11 C0.19308322 7.38616645 -0.56157766 4.94580104 -1 1 C-0.67 0.67 -0.34 0.34 0 0 Z " fill="#558ADE" transform="translate(289,229)"/>
<path d="M0 0 C1.16945792 0.80847729 2.33550461 1.62189112 3.5 2.4375 C4.47453125 3.11619141 4.47453125 3.11619141 5.46875 3.80859375 C5.9740625 4.20175781 6.479375 4.59492188 7 5 C7 5.33 7 5.66 7 6 C4.625 6.1875 4.625 6.1875 2 6 C0 3 0 3 0 0 Z " fill="#DFF1FC" transform="translate(137,228)"/>
<path d="M0 0 C0 0.99 0 1.98 0 3 C-0.66 3 -1.32 3 -2 3 C-2.33 3.99 -2.66 4.98 -3 6 C-4.32 5.67 -5.64 5.34 -7 5 C-2.25 0 -2.25 0 0 0 Z " fill="#E3F2FC" transform="translate(143,81)"/>
<path d="M0 0 C-0.33 1.32 -0.66 2.64 -1 4 C-3.31 4.33 -5.62 4.66 -8 5 C-3.16129032 0 -3.16129032 0 0 0 Z " fill="#6393DF" transform="translate(178,154)"/>
<path d="M0 0 C0.33 0 0.66 0 1 0 C1.36625971 4.51720311 1.36625971 4.51720311 -0.375 6.8125 C-2 8 -2 8 -4 8 C-2.87548273 5.0280615 -1.77706209 2.66559313 0 0 Z " fill="#DBECFC" transform="translate(83,122)"/>
<path d="M0 0 C0.99 0.33 1.98 0.66 3 1 C-1.625 6.875 -1.625 6.875 -5 8 C-5 7.34 -5 6.68 -5 6 C-4.01 5.34 -3.02 4.68 -2 4 C-0.80767387 1.94996045 -0.80767387 1.94996045 0 0 Z " fill="#558AEB" transform="translate(153,68)"/>
<path d="M0 0 C0.99 0 1.98 0 3 0 C3 2.97 3 5.94 3 9 C2.34 8.67 1.68 8.34 1 8 C0.40644386 5.35139573 0.25790731 2.70802678 0 0 Z " fill="#4789E7" transform="translate(323,128)"/>
<path d="M0 0 C-2.31 1.32 -4.62 2.64 -7 4 C-7.33 2.68 -7.66 1.36 -8 0 C-4.71303767 -0.79953138 -3.28976808 -1.09658936 0 0 Z " fill="#598BE1" transform="translate(127,81)"/>
<path d="M0 0 C4.95 0.99 4.95 0.99 10 2 C10 2.33 10 2.66 10 3 C6.7 3 3.4 3 0 3 C0 2.01 0 1.02 0 0 Z " fill="#E0F4FE" transform="translate(235,65)"/>
</svg>
