<?xml version="1.0" encoding="UTF-8"?>
<svg version="1.1" xmlns="http://www.w3.org/2000/svg" width="200" height="200">
<path d="M0 0 C66 0 132 0 200 0 C200 66 200 132 200 200 C134 200 68 200 0 200 C0 134 0 68 0 0 Z " fill="#FCFEFE" transform="translate(0,0)"/>
<path d="M0 0 C15.84 0 31.68 0 48 0 C48 2.97 48 5.94 48 9 C49.05058594 8.9071875 50.10117188 8.814375 51.18359375 8.71875 C63.94005555 7.93067671 63.94005555 7.93067671 69.5625 12.5625 C72.46590769 15.6701398 72.97569532 16.49770322 73.1875 20.875 C72 24 72 24 70 26 C69.64198729 28.82739532 69.64198729 28.82739532 69.6875 32 C69.66236328 33.60875 69.66236328 33.60875 69.63671875 35.25 C69.75660156 36.1575 69.87648437 37.065 70 38 C70.99 38.66 71.98 39.32 73 40 C73.375 42.9375 73.375 42.9375 73 46 C72 47 71 48 70 49 C69.26958147 52.61023099 69.26958147 52.61023099 69 56 C70.32 56 71.64 56 73 56 C72.01 59.96 71.02 63.92 70 68 C72.97 68 75.94 68 79 68 C79 83.84 79 99.68 79 116 C63.49 116 47.98 116 32 116 C32 103.79 32 91.58 32 79 C28.7 80.65 25.4 82.3 22 84 C21.01 84 20.02 84 19 84 C18.67 83.01 18.34 82.02 18 81 C17.01 81.495 17.01 81.495 16 82 C15.91903197 83.45742463 15.86082226 84.91612807 15.8125 86.375 C15.77769531 87.18710938 15.74289063 87.99921875 15.70703125 88.8359375 C15.80371094 89.55007812 15.90039062 90.26421875 16 91 C17.485 91.99 17.485 91.99 19 93 C19.36328125 94.875 19.36328125 94.875 19.3125 97 C19.30863281 97.70125 19.30476563 98.4025 19.30078125 99.125 C19 101 19 101 17 103 C16.01 103 15.02 103 14 103 C13.5359375 103.9590625 13.5359375 103.9590625 13.0625 104.9375 C12 107 12 107 11 108 C1.48010729 109.10147519 1.48010729 109.10147519 -2.6875 106 C-4.42193044 102.03558756 -4.29163811 99.30166212 -4 95 C-5.98 94.01 -5.98 94.01 -8 93 C-8.2954439 87.97745369 -7.98514628 85.10457614 -5 81 C-8.3 80.67 -11.6 80.34 -15 80 C-15 91.88 -15 103.76 -15 116 C-30.51 116 -46.02 116 -62 116 C-62.33 113.36 -62.66 110.72 -63 108 C-64.2375 108.309375 -65.475 108.61875 -66.75 108.9375 C-68.16666667 109.29166667 -69.58333333 109.64583333 -71 110 C-71.74765625 110.18691406 -72.4953125 110.37382812 -73.265625 110.56640625 C-73.83796875 110.70949219 -74.4103125 110.85257812 -75 111 C-75.061875 110.401875 -75.12375 109.80375 -75.1875 109.1875 C-75.8292145 106.75544324 -75.8292145 106.75544324 -78.4375 105.5625 C-81.56162732 103.65754432 -81.77323392 102.35316063 -83 99 C-83.721875 98.38125 -84.44375 97.7625 -85.1875 97.125 C-87 95 -87 95 -86.75 91.25 C-86.5025 90.1775 -86.255 89.105 -86 88 C-84.515 87.505 -84.515 87.505 -83 87 C-83 84.36 -83 81.72 -83 79 C-83.99 78.67 -84.98 78.34 -86 78 C-86.33 75.36 -86.66 72.72 -87 70 C-85.515 69.01 -85.515 69.01 -84 68 C-83.27034634 65.43717258 -83.27034634 65.43717258 -83 63 C-83.99 62.67 -84.98 62.34 -86 62 C-86.6875 58.6875 -86.6875 58.6875 -87 55 C-85.625 53.25 -85.625 53.25 -84 52 C-83.67 51.01 -83.34 50.02 -83 49 C-86.3 49 -89.6 49 -93 49 C-93 33.16 -93 17.32 -93 1 C-77.49 1 -61.98 1 -46 1 C-46 3.64 -46 6.28 -46 9 C-44.35 9 -42.7 9 -41 9 C-40.34 7.68 -39.68 6.36 -39 5 C-32.375 4.75 -32.375 4.75 -29 7 C-28.56867485 11.05445642 -28.69980639 12.54970958 -31 16 C-31.30066154 18.75417318 -31.50925299 21.42645147 -31.625 24.1875 C-31.66367188 24.93708984 -31.70234375 25.68667969 -31.7421875 26.45898438 C-31.83628216 28.30559199 -31.91922319 30.1527619 -32 32 C-30.576875 32.1546875 -30.576875 32.1546875 -29.125 32.3125 C-26 33 -26 33 -24 36 C-23.01 35.67 -22.02 35.34 -21 35 C-20.67 32.36 -20.34 29.72 -20 27 C-21.32 26.67 -22.64 26.34 -24 26 C-24.36717663 18.5340751 -24.36717663 18.5340751 -22.625 16 C-21 15 -21 15 -19 15 C-18.896875 14.38125 -18.79375 13.7625 -18.6875 13.125 C-18 11 -18 11 -15 9 C-14.01 9 -13.02 9 -12 9 C-12 7.68 -12 6.36 -12 5 C-7.05 5.99 -7.05 5.99 -2 7 C-1.34 4.69 -0.68 2.38 0 0 Z " fill="#F8FDFB" transform="translate(107,35)"/>
<path d="M0 0 C15.51 0 31.02 0 47 0 C47 2.64 47 5.28 47 8 C47.61488281 7.98839844 48.22976562 7.97679688 48.86328125 7.96484375 C49.67152344 7.95582031 50.47976562 7.94679688 51.3125 7.9375 C52.51326172 7.92009766 52.51326172 7.92009766 53.73828125 7.90234375 C56 8 56 8 59 9 C60.1875 11.5625 60.1875 11.5625 61 14 C61.66 14 62.32 14 63 14 C63 14.66 63 15.32 63 16 C63.66 16 64.32 16 65 16 C66.3442623 21.37704918 66.3442623 21.37704918 64.6875 24.375 C63 26 63 26 61 26 C61.32960216 31.01535052 61.32960216 31.01535052 64 35 C67.58343976 35.16677282 67.58343976 35.16677282 71 35 C70.67 34.278125 70.34 33.55625 70 32.8125 C68.9608553 29.88990554 68.51662217 28.06139292 69 25 C69.98613281 24.33677734 69.98613281 24.33677734 70.9921875 23.66015625 C73.22122166 22.17231138 73.22122166 22.17231138 73.46875 19.66015625 C73.4790625 18.80292969 73.489375 17.94570312 73.5 17.0625 C73.79259821 12.2903625 73.79259821 12.2903625 75.875 9.375 C78 8 78 8 81 8 C81 6.35 81 4.7 81 3 C85.50512494 4.68942185 89.7159734 6.82168139 94 9 C94 6.03 94 3.06 94 0 C109.51 0 125.02 0 141 0 C141 15.51 141 31.02 141 47 C125.49 47 109.98 47 94 47 C94 34.79 94 22.58 94 10 C90.7 11.65 87.4 13.3 84 15 C83.01 15 82.02 15 81 15 C80.505 13.515 80.505 13.515 80 12 C79.34 12.33 78.68 12.66 78 13 C77.91903197 14.45742463 77.86082226 15.91612807 77.8125 17.375 C77.77769531 18.18710938 77.74289063 18.99921875 77.70703125 19.8359375 C77.80371094 20.55007812 77.90039062 21.26421875 78 22 C78.99 22.66 79.98 23.32 81 24 C81.36328125 25.875 81.36328125 25.875 81.3125 28 C81.30863281 28.70125 81.30476563 29.4025 81.30078125 30.125 C81 32 81 32 79 34 C78.01 34 77.02 34 76 34 C75.5359375 34.9590625 75.5359375 34.9590625 75.0625 35.9375 C74 38 74 38 73 39 C63.48010729 40.10147519 63.48010729 40.10147519 59.3125 37 C57.57806956 33.03558756 57.70836189 30.30166212 58 26 C56.68 25.34 55.36 24.68 54 24 C53.7045561 18.97745369 54.01485372 16.10457614 57 12 C53.7 11.67 50.4 11.34 47 11 C47 22.88 47 34.76 47 47 C31.49 47 15.98 47 0 47 C0 31.49 0 15.98 0 0 Z " fill="#09AFB5" transform="translate(45,104)"/>
<path d="M0 0 C15.51 0 31.02 0 47 0 C47 2.64 47 5.28 47 8 C48.65 8 50.3 8 52 8 C52.66 6.68 53.32 5.36 54 4 C60.625 3.75 60.625 3.75 64 6 C64.43132515 10.05445642 64.30019361 11.54970958 62 15 C61.69933846 17.75417318 61.49074701 20.42645147 61.375 23.1875 C61.33632812 23.93708984 61.29765625 24.68667969 61.2578125 25.45898438 C61.16371784 27.30559199 61.08077681 29.1527619 61 31 C61.94875 31.103125 62.8975 31.20625 63.875 31.3125 C67 32 67 32 69 35 C69.99 34.67 70.98 34.34 72 34 C72.33 31.36 72.66 28.72 73 26 C71.68 25.67 70.36 25.34 69 25 C68.63282337 17.5340751 68.63282337 17.5340751 70.375 15 C72 14 72 14 74 14 C74.103125 13.38125 74.20625 12.7625 74.3125 12.125 C75 10 75 10 78 8 C78.99 8 79.98 8 81 8 C81 6.68 81 5.36 81 4 C85.23429756 5.31061591 89.07407404 6.94356259 93 9 C90.6975881 11.60045875 88.50103323 12.84739183 85.3125 14.1875 C84.50425781 14.53167969 83.69601563 14.87585937 82.86328125 15.23046875 C82.24839844 15.48441406 81.63351563 15.73835938 81 16 C81 14.68 81 13.36 81 12 C77.88214887 12.64644661 77.88214887 12.64644661 77 15 C78.32 15.66 79.64 16.32 81 17 C81.1875 19.8125 81.1875 19.8125 81 23 C80.51917969 23.45890625 80.03835937 23.9178125 79.54296875 24.390625 C77.51062716 26.51043446 77.48049547 28.05451842 77.125 30.9375 C76.49040851 34.54575577 76.27669607 35.70834738 73.6875 38.4375 C72.3571875 39.2109375 72.3571875 39.2109375 71 40 C70.21625 40.5775 69.4325 41.155 68.625 41.75 C65.1707372 43.39488705 62.77847723 43.4898026 59 43 C57 41.4375 57 41.4375 56 39 C56.30098229 36.66227349 56.64071551 34.32947853 57 32 C57.24475709 29.19059981 57.40536698 26.37801461 57.5625 23.5625 C57.62727539 22.46518555 57.62727539 22.46518555 57.69335938 21.34570312 C57.79816821 19.56395285 57.89945521 17.78199598 58 16 C57.36578125 15.87753906 56.7315625 15.75507812 56.078125 15.62890625 C54 15 54 15 52.75 12.9375 C52.5025 12.298125 52.255 11.65875 52 11 C50.35 11 48.7 11 47 11 C47 23.21 47 35.42 47 48 C36.11 48 25.22 48 14 48 C14 48.99 14 49.98 14 51 C15.32 51.66 16.64 52.32 18 53 C18.37153846 59.56384615 18.37153846 59.56384615 16.5625 61.6875 C16.046875 62.120625 15.53125 62.55375 15 63 C14.28552357 65.10332891 14.28552357 65.10332891 14 67 C15.32 67.66 16.64 68.32 18 69 C18 71.31 18 73.62 18 76 C16.02 76.99 16.02 76.99 14 78 C14 80.64 14 83.28 14 86 C14.99 86 15.98 86 17 86 C18.4783226 88.95664519 18.06032783 91.74229737 18 95 C16.02 95.99 16.02 95.99 14 97 C15.3089572 100.12197478 15.3089572 100.12197478 18 102 C18 100.68 18 99.36 18 98 C22.23429756 99.31061591 26.07407404 100.94356259 30 103 C30 103.66 30 104.32 30 105 C28.56705502 105.84114171 27.12845595 106.67265687 25.6875 107.5 C24.88699219 107.9640625 24.08648437 108.428125 23.26171875 108.90625 C21 110 21 110 18 110 C17.938125 109.401875 17.87625 108.80375 17.8125 108.1875 C17.1707855 105.75544324 17.1707855 105.75544324 14.5625 104.5625 C11.43837268 102.65754432 11.22676608 101.35316063 10 98 C9.278125 97.38125 8.55625 96.7625 7.8125 96.125 C6 94 6 94 6.25 90.25 C6.4975 89.1775 6.745 88.105 7 87 C8.485 86.505 8.485 86.505 10 86 C10 83.36 10 80.72 10 78 C9.01 77.67 8.02 77.34 7 77 C6.67 74.36 6.34 71.72 6 69 C7.485 68.01 7.485 68.01 9 67 C9.72965366 64.43717258 9.72965366 64.43717258 10 62 C9.01 61.67 8.02 61.34 7 61 C6.3125 57.6875 6.3125 57.6875 6 54 C7.375 52.25 7.375 52.25 9 51 C9.33 50.01 9.66 49.02 10 48 C6.7 48 3.4 48 0 48 C0 32.16 0 16.32 0 0 Z " fill="#04B0B6" transform="translate(14,36)"/>
<path d="M0 0 C15.51 0 31.02 0 47 0 C47 2.97 47 5.94 47 9 C48.05058594 8.9071875 49.10117188 8.814375 50.18359375 8.71875 C62.94005555 7.93067671 62.94005555 7.93067671 68.5625 12.5625 C71.46590769 15.6701398 71.97569532 16.49770322 72.1875 20.875 C71 24 71 24 69 26 C68.64198729 28.82739532 68.64198729 28.82739532 68.6875 32 C68.66236328 33.60875 68.66236328 33.60875 68.63671875 35.25 C68.75660156 36.1575 68.87648438 37.065 69 38 C70.485 38.99 70.485 38.99 72 40 C72.375 42.9375 72.375 42.9375 72 46 C71 47 70 48 69 49 C68.26958147 52.61023099 68.26958147 52.61023099 68 56 C69.32 56 70.64 56 72 56 C70.43358249 60.30764815 68.31663844 64.06171464 66 68 C63.25207517 64.59780735 60 60.51535412 60 56 C61.32 56 62.64 56 64 56 C64 53.69 64 51.38 64 49 C62.68 48.34 61.36 47.68 60 47 C59.8125 43.625 59.8125 43.625 60 40 C60.99 39.34 61.98 38.68 63 38 C63.58481121 35.11404054 63.58481121 35.11404054 63.6875 31.875 C63.75324219 30.77929688 63.81898438 29.68359375 63.88671875 28.5546875 C63.92410156 27.71164063 63.96148437 26.86859375 64 26 C63.34 26 62.68 26 62 26 C59.69558446 22.54337669 59.74139865 21.05142119 60 17 C60.33 16.34 60.66 15.68 61 15 C61.66 15 62.32 15 63 15 C62.505 14.01 62.505 14.01 62 13 C59.45058627 12.68758629 56.99638487 12.48696579 54.4375 12.375 C53.72658203 12.33632813 53.01566406 12.29765625 52.28320312 12.2578125 C50.52257575 12.16328217 48.76132272 12.08054183 47 12 C47 12.66 47 13.32 47 14 C46.01 14 45.02 14 44 14 C44 14.99 44 15.98 44 17 C44.99 17 45.98 17 47 17 C47 21.62 47 26.24 47 31 C46.01 31 45.02 31 44 31 C44 31.99 44 32.98 44 34 C44.99 34 45.98 34 47 34 C47 38.95 47 43.9 47 49 C36.605 49.495 36.605 49.495 26 50 C26.99 50.99 27.98 51.98 29 53 C29 53.66 29 54.32 29 55 C33.95 55 38.9 55 44 55 C44 55.99 44 56.98 44 58 C39.05 58 34.1 58 29 58 C28.34 59.32 27.68 60.64 27 62 C24.69 62 22.38 62 20 62 C19.34 60.68 18.68 59.36 18 58 C13.05 58 8.1 58 3 58 C3 57.01 3 56.02 3 55 C4.44632812 54.96132812 4.44632812 54.96132812 5.921875 54.921875 C7.18515625 54.86515625 8.4484375 54.8084375 9.75 54.75 C11.62945312 54.68039063 11.62945312 54.68039063 13.546875 54.609375 C17.51522008 54.24939638 17.51522008 54.24939638 21 50 C14.07 49.67 7.14 49.34 0 49 C0 44.05 0 39.1 0 34 C0.99 34 1.98 34 3 34 C3 33.34 3 32.68 3 32 C2.01 32 1.02 32 0 32 C0 27.05 0 22.1 0 17 C0.99 17 1.98 17 3 17 C3 16.01 3 15.02 3 14 C2.01 14 1.02 14 0 14 C0 9.38 0 4.76 0 0 Z " fill="#22A6AB" transform="translate(108,35)"/>
<path d="M0 0 C14.52 0 29.04 0 44 0 C44 14.85 44 29.7 44 45 C33.3884375 45.0309375 33.3884375 45.0309375 22.5625 45.0625 C19.20880249 45.07615601 19.20880249 45.07615601 15.78735352 45.09008789 C14.02620504 45.09300696 12.26505589 45.09555554 10.50390625 45.09765625 C9.58057495 45.10277222 8.65724365 45.10788818 7.70593262 45.11315918 C6.83303589 45.11328003 5.96013916 45.11340088 5.06079102 45.11352539 C4.29912125 45.115746 3.53745148 45.11796661 2.75270081 45.12025452 C1 45 1 45 0 44 C-0.0927833 42.61839885 -0.11747043 41.23211962 -0.11352539 39.84741211 C-0.11340454 38.95421265 -0.11328369 38.06101318 -0.11315918 37.14074707 C-0.10804321 36.19582397 -0.10292725 35.25090088 -0.09765625 34.27734375 C-0.09664917 33.41338989 -0.09564209 32.54943604 -0.09460449 31.65930176 C-0.0893555 28.41868775 -0.07539436 25.1780926 -0.0625 21.9375 C-0.041875 14.698125 -0.02125 7.45875 0 0 Z " fill="#04B0B7" transform="translate(141,105)"/>
<path d="M0 0 C14.52 0 29.04 0 44 0 C44 1.98 44 3.96 44 6 C42.35 6 40.7 6 39 6 C39 7.98 39 9.96 39 12 C40.32 12 41.64 12 43 12 C43 13.32 43 14.64 43 16 C43.99 16 44.98 16 46 16 C46 20.62 46 25.24 46 30 C45.01 30 44.02 30 43 30 C43 30.99 43 31.98 43 33 C43.99 33 44.98 33 46 33 C46 37.95 46 42.9 46 48 C35.605 48.495 35.605 48.495 25 49 C25.99 49.99 26.98 50.98 28 52 C28 52.66 28 53.32 28 54 C32.95 54 37.9 54 43 54 C43 54.99 43 55.98 43 57 C38.05 57 33.1 57 28 57 C27.34 58.32 26.68 59.64 26 61 C23.69 61 21.38 61 19 61 C18.34 59.68 17.68 58.36 17 57 C12.05 57 7.1 57 2 57 C2 56.01 2 55.02 2 54 C3.42892578 53.99613281 3.42892578 53.99613281 4.88671875 53.9921875 C6.14097656 53.95351562 7.39523438 53.91484375 8.6875 53.875 C9.92886719 53.85179687 11.17023438 53.82859375 12.44921875 53.8046875 C16.8810506 53.17845798 16.8810506 53.17845798 21 47 C14.07 47 7.14 47 0 47 C0 43.04 0 39.08 0 35 C2.64 34.67 5.28 34.34 8 34 C8 35.32 8 36.64 8 38 C11.06455109 37.93985179 14.12432931 37.85277597 17.1875 37.75 C18.48397461 37.72873047 18.48397461 37.72873047 19.80664062 37.70703125 C25.10066088 37.50419522 28.19203508 37.04218498 32 33 C34.59960947 28.66731754 34.53666186 23.90785923 34 19 C32.67984513 14.8065669 31.82244014 13.44374002 27.9375 11.34765625 C23.64309453 9.61899258 19.63294799 9.65976009 15.0625 9.8125 C14.28326172 9.82603516 13.50402344 9.83957031 12.70117188 9.85351562 C10.80047596 9.88849776 8.90014166 9.94229041 7 10 C7 10.66 7 11.32 7 12 C4.69 12 2.38 12 0 12 C0 8.04 0 4.08 0 0 Z " fill="#04AFB6" transform="translate(109,36)"/>
<path d="M0 0 C15.51 0 31.02 0 47 0 C47 15.51 47 31.02 47 47 C31.49 47 15.98 47 0 47 C0 34.79 0 22.58 0 10 C-3.3 11.65 -6.6 13.3 -10 15 C-10.99 15 -11.98 15 -13 15 C-13.33 14.01 -13.66 13.02 -14 12 C-14.99 12.495 -14.99 12.495 -16 13 C-16.08096803 14.45742463 -16.13917774 15.91612807 -16.1875 17.375 C-16.22230469 18.18710938 -16.25710937 18.99921875 -16.29296875 19.8359375 C-16.19628906 20.55007812 -16.09960938 21.26421875 -16 22 C-15.01 22.66 -14.02 23.32 -13 24 C-12.63671875 25.875 -12.63671875 25.875 -12.6875 28 C-12.69136719 28.70125 -12.69523437 29.4025 -12.69921875 30.125 C-13 32 -13 32 -15 34 C-15.99 34 -16.98 34 -18 34 C-18.309375 34.639375 -18.61875 35.27875 -18.9375 35.9375 C-20 38 -20 38 -21 39 C-30.51989271 40.10147519 -30.51989271 40.10147519 -34.6875 37 C-36.42193044 33.03558756 -36.29163811 30.30166212 -36 26 C-37.32 25.34 -38.64 24.68 -40 24 C-40.36103152 17.6217765 -40.36103152 17.6217765 -38.875 15.0625 C-36.214973 13.55515137 -33.99793795 13.80013747 -31 14 C-31 14.66 -31 15.32 -31 16 C-30.34 16 -29.68 16 -29 16 C-27.6557377 21.37704918 -27.6557377 21.37704918 -29.3125 24.375 C-31 26 -31 26 -33 26 C-32.67039784 31.01535052 -32.67039784 31.01535052 -30 35 C-26.41656024 35.16677282 -26.41656024 35.16677282 -23 35 C-23.33 34.278125 -23.66 33.55625 -24 32.8125 C-25.0391447 29.88990554 -25.48337783 28.06139292 -25 25 C-24.34257813 24.55785156 -23.68515625 24.11570313 -23.0078125 23.66015625 C-20.77877834 22.17231138 -20.77877834 22.17231138 -20.53125 19.66015625 C-20.5209375 18.80292969 -20.510625 17.94570312 -20.5 17.0625 C-20.20740179 12.2903625 -20.20740179 12.2903625 -18.125 9.375 C-16 8 -16 8 -13 8 C-13 6.35 -13 4.7 -13 3 C-8.49487506 4.68942185 -4.2840266 6.82168139 0 9 C0 6.03 0 3.06 0 0 Z M2 1 C1.979375 8.239375 1.95875 15.47875 1.9375 22.9375 C1.928396 25.22550537 1.91929199 27.51351074 1.90991211 29.87084961 C1.90699305 31.67301372 1.90444447 33.4751785 1.90234375 35.27734375 C1.89722778 36.22226685 1.89211182 37.16718994 1.88684082 38.14074707 C1.88671997 39.03394653 1.88659912 39.927146 1.88647461 40.84741211 C1.884254 41.62684677 1.88203339 42.40628143 1.87974548 43.20933533 C1.80428614 45.02366535 1.80428614 45.02366535 3 46 C4.35094982 46.09268999 5.70667091 46.11747326 7.06079102 46.11352539 C7.93368774 46.11340454 8.80658447 46.11328369 9.70593262 46.11315918 C10.62926392 46.10804321 11.55259521 46.10292725 12.50390625 46.09765625 C13.3482019 46.09664917 14.19249756 46.09564209 15.06237793 46.09460449 C18.22909902 46.0893557 21.39580081 46.07539456 24.5625 46.0625 C31.636875 46.041875 38.71125 46.02125 46 46 C46 31.15 46 16.3 46 1 C31.48 1 16.96 1 2 1 Z " fill="#1CA6AA" transform="translate(139,104)"/>
<path d="M0 0 C2.68125 -0.0825 5.3625 -0.165 8.125 -0.25 C8.95789551 -0.28641602 9.79079102 -0.32283203 10.64892578 -0.36035156 C15.90312542 -0.43808012 18.84046136 0.51446067 23 4 C25.66021108 8.23215399 25.54842327 13.14988175 25 18 C23.30207273 22.73632345 21.25008221 25.32674351 17 28 C14.03844936 28.47339966 11.17658027 28.37927608 8.1875 28.25 C5.485625 28.1675 2.78375 28.085 0 28 C0 18.76 0 9.52 0 0 Z " fill="#F5FEFD" transform="translate(119,46)"/>
<path d="M0 0 C3.5625 0.25 3.5625 0.25 6.5625 2.25 C6.99382515 6.30445642 6.86269361 7.79970958 4.5625 11.25 C4.26183846 14.00417318 4.05324701 16.67645147 3.9375 19.4375 C3.87949219 20.56188477 3.87949219 20.56188477 3.8203125 21.70898438 C3.72621784 23.55559199 3.64327681 25.4027619 3.5625 27.25 C4.51125 27.353125 5.46 27.45625 6.4375 27.5625 C9.5625 28.25 9.5625 28.25 11.5625 31.25 C12.5525 30.92 13.5425 30.59 14.5625 30.25 C14.8925 27.61 15.2225 24.97 15.5625 22.25 C14.2425 21.92 12.9225 21.59 11.5625 21.25 C11.19532337 13.7840751 11.19532337 13.7840751 12.9375 11.25 C14.5625 10.25 14.5625 10.25 16.5625 10.25 C16.665625 9.63125 16.76875 9.0125 16.875 8.375 C17.5625 6.25 17.5625 6.25 20.5625 4.25 C21.5525 4.25 22.5425 4.25 23.5625 4.25 C23.5625 2.93 23.5625 1.61 23.5625 0.25 C27.79679756 1.56061591 31.63657404 3.19356259 35.5625 5.25 C33.2600881 7.85045875 31.06353323 9.09739183 27.875 10.4375 C27.06675781 10.78167969 26.25851563 11.12585937 25.42578125 11.48046875 C24.81089844 11.73441406 24.19601563 11.98835938 23.5625 12.25 C23.5625 10.93 23.5625 9.61 23.5625 8.25 C20.44464887 8.89644661 20.44464887 8.89644661 19.5625 11.25 C20.8825 11.91 22.2025 12.57 23.5625 13.25 C23.75 16.0625 23.75 16.0625 23.5625 19.25 C23.08167969 19.70890625 22.60085937 20.1678125 22.10546875 20.640625 C20.07312716 22.76043446 20.04299547 24.30451842 19.6875 27.1875 C19.05290851 30.79575577 18.83919607 31.95834738 16.25 34.6875 C15.363125 35.203125 14.47625 35.71875 13.5625 36.25 C12.77875 36.8275 11.995 37.405 11.1875 38 C7.7332372 39.64488705 5.34097723 39.7398026 1.5625 39.25 C-0.4375 37.6875 -0.4375 37.6875 -1.4375 35.25 C-1.13651771 32.91227349 -0.79678449 30.57947853 -0.4375 28.25 C-0.19274291 25.44059981 -0.03213302 22.62801461 0.125 19.8125 C0.16818359 19.08095703 0.21136719 18.34941406 0.25585938 17.59570312 C0.36066821 15.81395285 0.46195521 14.03199598 0.5625 12.25 C-0.05625 12.12625 -0.675 12.0025 -1.3125 11.875 C-3.4375 11.25 -3.4375 11.25 -5.4375 9.25 C-5.6875 5.75 -5.6875 5.75 -5.4375 2.25 C-3.4375 0.25 -3.4375 0.25 0 0 Z " fill="#E2B547" transform="translate(71.4375,39.75)"/>
<path d="M0 0 C2.875 0.875 2.875 0.875 4.875 2.875 C5.1875 6.3125 5.1875 6.3125 4.875 9.875 C3.4375 11.5625 3.4375 11.5625 1.875 12.875 C1.16052357 14.97832891 1.16052357 14.97832891 0.875 16.875 C2.195 17.535 3.515 18.195 4.875 18.875 C4.875 21.185 4.875 23.495 4.875 25.875 C2.895 26.865 2.895 26.865 0.875 27.875 C0.875 30.515 0.875 33.155 0.875 35.875 C1.865 35.875 2.855 35.875 3.875 35.875 C5.3533226 38.83164519 4.93532783 41.61729737 4.875 44.875 C3.555 45.535 2.235 46.195 0.875 46.875 C2.1839572 49.99697478 2.1839572 49.99697478 4.875 51.875 C4.875 50.555 4.875 49.235 4.875 47.875 C9.10929756 49.18561591 12.94907404 50.81856259 16.875 52.875 C16.875 53.535 16.875 54.195 16.875 54.875 C15.44205502 55.71614171 14.00345595 56.54765687 12.5625 57.375 C11.76199219 57.8390625 10.96148437 58.303125 10.13671875 58.78125 C7.875 59.875 7.875 59.875 4.875 59.875 C4.813125 59.276875 4.75125 58.67875 4.6875 58.0625 C4.0457855 55.63044324 4.0457855 55.63044324 1.4375 54.4375 C-1.68662732 52.53254432 -1.89823392 51.22816063 -3.125 47.875 C-3.846875 47.25625 -4.56875 46.6375 -5.3125 46 C-7.125 43.875 -7.125 43.875 -6.875 40.125 C-6.6275 39.0525 -6.38 37.98 -6.125 36.875 C-4.64 36.38 -4.64 36.38 -3.125 35.875 C-3.125 33.235 -3.125 30.595 -3.125 27.875 C-4.115 27.545 -5.105 27.215 -6.125 26.875 C-6.455 24.235 -6.785 21.595 -7.125 18.875 C-6.135 18.215 -5.145 17.555 -4.125 16.875 C-3.39534634 14.31217258 -3.39534634 14.31217258 -3.125 11.875 C-4.115 11.545 -5.105 11.215 -6.125 10.875 C-7.5744382 4.59410112 -7.5744382 4.59410112 -5.5625 1.375 C-3.125 -0.125 -3.125 -0.125 0 0 Z " fill="#ECAC23" transform="translate(27.125,86.125)"/>
<path d="M0 0 C14.52 0 29.04 0 44 0 C44 1.98 44 3.96 44 6 C42.35 6 40.7 6 39 6 C39 7.98 39 9.96 39 12 C40.32 12 41.64 12 43 12 C43 13.32 43 14.64 43 16 C33.78114004 16.63335679 33.78114004 16.63335679 30.6875 14.125 C30.130625 13.42375 29.57375 12.7225 29 12 C24.49273313 9.53214286 20.1763277 9.7662745 15.1875 9.875 C14.39923828 9.88402344 13.61097656 9.89304687 12.79882812 9.90234375 C10.86575334 9.92577496 8.9328362 9.96164162 7 10 C7 10.66 7 11.32 7 12 C4.69 12 2.38 12 0 12 C0 8.04 0 4.08 0 0 Z " fill="#04AFB5" transform="translate(109,36)"/>
<path d="M0 0 C2.536875 -0.04125 5.07375 -0.0825 7.6875 -0.125 C8.47729248 -0.14320801 9.26708496 -0.16141602 10.08081055 -0.18017578 C14.16967393 -0.21222908 17.40505047 -0.01423888 21 2 C23.69594723 6.04392085 23.76471433 9.25378388 23 14 C21.1875 17.0625 21.1875 17.0625 18 19 C14.29370744 19.3956155 10.71102824 19.29246282 7 19 C7 22.3 7 25.6 7 29 C4.69 29 2.38 29 0 29 C0 19.43 0 9.86 0 0 Z " fill="#F2FDFC" transform="translate(26,45)"/>
<path d="M0 0 C2.31 0 4.62 0 7 0 C9.80641804 6.06186296 12.31484712 12.21932819 14.75 18.4375 C15.06783447 19.24300293 15.38566895 20.04850586 15.71313477 20.87841797 C16.00889404 21.63912598 16.30465332 22.39983398 16.609375 23.18359375 C16.87717773 23.86993896 17.14498047 24.55628418 17.42089844 25.26342773 C18 27 18 27 18 29 C15.69 29 13.38 29 11 29 C10.34 27.35 9.68 25.7 9 24 C5.37 23.67 1.74 23.34 -2 23 C-2.66 24.98 -3.32 26.96 -4 29 C-5.98 29 -7.96 29 -10 29 C-7.24809142 19.12550449 -3.59872163 9.58969974 0 0 Z " fill="#E2FAF9" transform="translate(64,113)"/>
<path d="M0 0 C3.125 1.6875 3.125 1.6875 5 4 C5.8125 6.75 5.8125 6.75 6 9 C3.125 9.1875 3.125 9.1875 0 9 C-0.66 8.01 -1.32 7.02 -2 6 C-5.58357241 5.74984127 -5.58357241 5.74984127 -9 6 C-9 6.99 -9 7.98 -9 9 C-8.18015625 9.24234375 -7.3603125 9.4846875 -6.515625 9.734375 C-5.43796875 10.06953125 -4.3603125 10.4046875 -3.25 10.75 C-2.18265625 11.07484375 -1.1153125 11.3996875 -0.015625 11.734375 C3.17735564 13.07443423 4.8435564 14.31471428 7 17 C7.65409142 20.84278709 7.35086139 22.44864639 5.25 25.75 C1.76605725 29.23394275 0.09554181 29.89397982 -4.875 30.375 C-9.17888253 30.27061479 -11.67949059 28.76709117 -15 26 C-17 23 -17 23 -17 19 C-15.02 19 -13.04 19 -11 19 C-10.79375 19.639375 -10.5875 20.27875 -10.375 20.9375 C-9.11142782 23.32301287 -9.11142782 23.32301287 -6 23.8125 C-3.07613397 24.24729012 -3.07613397 24.24729012 -1 23 C-0.34786708 20.97536745 -0.34786708 20.97536745 0 19 C-0.73605469 18.82984375 -1.47210938 18.6596875 -2.23046875 18.484375 C-12.91376147 15.83119266 -12.91376147 15.83119266 -16 12 C-16.77827347 7.7194959 -16.47469671 5.76933604 -14.1875 2.0625 C-9.53476583 -0.9480927 -5.39457974 -0.87479672 0 0 Z " fill="#DBFAFA" transform="translate(168,113)"/>
<path d="M0 0 C3.1875 1.9375 3.1875 1.9375 6 4 C5.25 10.75 5.25 10.75 3 13 C2.64198729 15.82739532 2.64198729 15.82739532 2.6875 19 C2.67074219 20.0725 2.65398437 21.145 2.63671875 22.25 C2.75660156 23.1575 2.87648437 24.065 3 25 C3.99 25.66 4.98 26.32 6 27 C6.375 29.9375 6.375 29.9375 6 33 C5 34 4 35 3 36 C2.26958147 39.61023099 2.26958147 39.61023099 2 43 C3.32 43 4.64 43 6 43 C4.43358249 47.30764815 2.31663844 51.06171464 0 55 C-2.74792483 51.59780735 -6 47.51535412 -6 43 C-4.68 43 -3.36 43 -2 43 C-2 40.69 -2 38.38 -2 36 C-3.32 35.34 -4.64 34.68 -6 34 C-6.1875 30.625 -6.1875 30.625 -6 27 C-5.01 26.34 -4.02 25.68 -3 25 C-2.41518879 22.11404054 -2.41518879 22.11404054 -2.3125 18.875 C-2.24675781 17.77929688 -2.18101562 16.68359375 -2.11328125 15.5546875 C-2.07589844 14.71164063 -2.03851563 13.86859375 -2 13 C-2.66 13 -3.32 13 -4 13 C-6.31282587 9.53076119 -6.42478586 8.07794425 -6 4 C-4.14657225 1.44050454 -3.06243607 1.02081202 0 0 Z " fill="#EEA90E" transform="translate(174,48)"/>
<path d="M0 0 C0 0.66 0 1.32 0 2 C0.66 2 1.32 2 2 2 C3.3442623 7.37704918 3.3442623 7.37704918 1.6875 10.375 C0 12 0 12 -2 12 C-1.67039784 17.01535052 -1.67039784 17.01535052 1 21 C4.58343976 21.16677282 4.58343976 21.16677282 8 21 C7.67 20.278125 7.34 19.55625 7 18.8125 C5.9608553 15.88990554 5.51662217 14.06139292 6 11 C8.13861196 8.70297234 9.4458506 8.06757919 12.5625 7.6875 C15 8 15 8 18 10 C18.36328125 11.875 18.36328125 11.875 18.3125 14 C18.30863281 14.70125 18.30476563 15.4025 18.30078125 16.125 C18 18 18 18 16 20 C15.01 20 14.02 20 13 20 C12.690625 20.639375 12.38125 21.27875 12.0625 21.9375 C11 24 11 24 10 25 C0.48010729 26.10147519 0.48010729 26.10147519 -3.6875 23 C-5.42193044 19.03558756 -5.29163811 16.30166212 -5 12 C-6.32 11.34 -7.64 10.68 -9 10 C-9.36103152 3.6217765 -9.36103152 3.6217765 -7.875 1.0625 C-5.214973 -0.44484863 -2.99793795 -0.19986253 0 0 Z " fill="#E7AD26" transform="translate(108,118)"/>
<path d="M0 0 C3.96 0 7.92 0 12 0 C12 4.62 12 9.24 12 14 C11.01 14 10.02 14 9 14 C9 14.99 9 15.98 9 17 C9.99 17 10.98 17 12 17 C12 21.95 12 26.9 12 32 C4.74 32 -2.52 32 -10 32 C-10 31.67 -10 31.34 -10 31 C-5.05 30.67 -0.1 30.34 5 30 C5 28.35 5 26.7 5 25 C6.98 25 8.96 25 11 25 C10.505 21.535 10.505 21.535 10 18 C8.906875 18.185625 7.81375 18.37125 6.6875 18.5625 C3 19 3 19 0 18 C-0.309375 18.639375 -0.61875 19.27875 -0.9375 19.9375 C-2 22 -2 22 -3 23 C-4.56172745 23.08685603 -6.12729344 23.10702219 -7.69140625 23.09765625 C-8.63564453 23.09443359 -9.57988281 23.09121094 -10.55273438 23.08789062 C-12.04256836 23.07532227 -12.04256836 23.07532227 -13.5625 23.0625 C-14.55958984 23.05798828 -15.55667969 23.05347656 -16.58398438 23.04882812 C-19.05604849 23.03700007 -21.52799518 23.02051849 -24 23 C-24 22.67 -24 22.34 -24 22 C-22.83082031 21.97421875 -21.66164063 21.9484375 -20.45703125 21.921875 C-18.90881774 21.86557633 -17.3606421 21.80822938 -15.8125 21.75 C-14.65911133 21.72873047 -14.65911133 21.72873047 -13.48242188 21.70703125 C-9.65947179 21.54295614 -7.42366447 21.25114423 -4.07421875 19.265625 C-0.16694721 14.99779545 0.24957472 11.35564968 0.125 5.6875 C0.08375 3.810625 0.0425 1.93375 0 0 Z " fill="#15A6AB" transform="translate(143,52)"/>
<path d="M0 0 C15.51 0 31.02 0 47 0 C47 2.64 47 5.28 47 8 C48.65 8 50.3 8 52 8 C52 8.99 52 9.98 52 11 C50.35 11 48.7 11 47 11 C47 23.21 47 35.42 47 48 C36.11 48 25.22 48 14 48 C14 47.34 14 46.68 14 46 C24.23 46 34.46 46 45 46 C44.98839844 43.50566406 44.97679687 41.01132813 44.96484375 38.44140625 C44.95702268 35.99878059 44.95096331 33.55615637 44.94506836 31.11352539 C44.94007057 29.42894862 44.93327011 27.74437612 44.92456055 26.05981445 C44.91229378 23.62450094 44.90672602 21.18924526 44.90234375 18.75390625 C44.89718246 18.01290176 44.89202118 17.27189728 44.88670349 16.50843811 C44.88614676 11.2009442 45.40553463 6.35018836 46 1 C31.15 1 16.3 1 1 1 C1 15.85 1 30.7 1 46 C3.97 46 6.94 46 10 46 C10.33 47.32 10.66 48.64 11 50 C10.67 49.34 10.34 48.68 10 48 C6.7 48 3.4 48 0 48 C0 32.16 0 16.32 0 0 Z " fill="#3DB7BC" transform="translate(14,36)"/>
<path d="M0 0 C4.23429756 1.31061591 8.07407404 2.94356259 12 5 C9.6975881 7.60045875 7.50103323 8.84739183 4.3125 10.1875 C3.50425781 10.53167969 2.69601563 10.87585937 1.86328125 11.23046875 C1.24839844 11.48441406 0.63351563 11.73835938 0 12 C0 10.68 0 9.36 0 8 C-3.11785113 8.64644661 -3.11785113 8.64644661 -4 11 C-2.68 11.66 -1.36 12.32 0 13 C0.35555556 18.33333333 0.35555556 18.33333333 -1 20.875 C-4.29426767 22.72802556 -7.26502789 22.24096594 -11 22 C-12 21 -12 21 -12.25 17.125 C-12.20891261 13.30387289 -12.20891261 13.30387289 -10.625 11 C-9 10 -9 10 -7 10 C-6.8453125 9.071875 -6.8453125 9.071875 -6.6875 8.125 C-6 6 -6 6 -3 4 C-2.01 4 -1.02 4 0 4 C0 2.68 0 1.36 0 0 Z " fill="#E5B540" transform="translate(95,40)"/>
<path d="M0 0 C2.375 0.75 2.375 0.75 5 2 C5.66 3.32 6.32 4.64 7 6 C11.95 6 16.9 6 22 6 C22 6.99 22 7.98 22 9 C17.05 9 12.1 9 7 9 C6.34 10.32 5.68 11.64 5 13 C2.69 13 0.38 13 -2 13 C-2.66 11.68 -3.32 10.36 -4 9 C-8.95 9 -13.9 9 -19 9 C-19 8.01 -19 7.02 -19 6 C-17.57107422 5.97873047 -17.57107422 5.97873047 -16.11328125 5.95703125 C-8.1996583 6.08312159 -8.1996583 6.08312159 -1.625 2.4375 C-1.08875 1.633125 -0.5525 0.82875 0 0 Z " fill="#2799A0" transform="translate(130,84)"/>
<path d="M0 0 C8 0 8 0 10.5 1.375 C12.8440582 5.47710185 12.73430028 9.3953253 12 14 C10.5 16.625 10.5 16.625 8 18 C5.36 18 2.72 18 0 18 C0 12.06 0 6.12 0 0 Z " fill="#03B1B7" transform="translate(125,51)"/>
<path d="M0 0 C0.66 0 1.32 0 2 0 C1.95359375 0.61488281 1.9071875 1.22976562 1.859375 1.86328125 C1.82328125 2.67152344 1.7871875 3.47976562 1.75 4.3125 C1.70359375 5.11300781 1.6571875 5.91351563 1.609375 6.73828125 C1.79594748 9.11419423 1.79594748 9.11419423 3.65625 10.65625 C6.29136234 12.16704774 8.87932582 13.19643391 11.75 14.1875 C12.73484375 14.53167969 13.7196875 14.87585938 14.734375 15.23046875 C15.48203125 15.48441406 16.2296875 15.73835937 17 16 C16.67 17.65 16.34 19.3 16 21 C10.6440678 22.33898305 10.6440678 22.33898305 7.625 20.75 C6 19 6 19 6 16 C4.02 16 2.04 16 0 16 C1.77027754 20.60272162 3.18699218 23.7129243 7 27 C3.7 26.67 0.4 26.34 -3 26 C-3 25.34 -3 24.68 -3 24 C-2.34 24 -1.68 24 -1 24 C-1.63877452 19.25592153 -1.63877452 19.25592153 -2.5625 14.5625 C-3.16911185 11.00948776 -3.06106925 7.60308596 -3 4 C-2.34 3.67 -1.68 3.34 -1 3 C-0.67 2.01 -0.34 1.02 0 0 Z " fill="#18AEB3" transform="translate(151,116)"/>
<path d="M0 0 C0.33 0 0.66 0 1 0 C1 15.51 1 31.02 1 47 C0.67 47 0.34 47 0 47 C0 34.79 0 22.58 0 10 C-4.95 12.475 -4.95 12.475 -10 15 C-10.99 15 -11.98 15 -13 15 C-13.33 14.01 -13.66 13.02 -14 12 C-14.99 12.495 -14.99 12.495 -16 13 C-16.46651207 15.12576782 -16.46651207 15.12576782 -16.625 17.5625 C-16.69976562 18.38878906 -16.77453125 19.21507813 -16.8515625 20.06640625 C-16.90054688 20.70449219 -16.94953125 21.34257813 -17 22 C-17.99 22 -18.98 22 -20 22 C-20.62485037 12.90495571 -20.62485037 12.90495571 -18.1875 9.375 C-16 8 -16 8 -13 8 C-13 6.35 -13 4.7 -13 3 C-8.49487506 4.68942185 -4.2840266 6.82168139 0 9 C0 6.03 0 3.06 0 0 Z " fill="#3AB2B5" transform="translate(139,104)"/>
<path d="M0 0 C2.68125 -0.0825 5.3625 -0.165 8.125 -0.25 C8.95789551 -0.28641602 9.79079102 -0.32283203 10.64892578 -0.36035156 C15.90312542 -0.43808012 18.84046136 0.51446067 23 4 C25.70666377 8.30605599 25.19285701 13.08214635 25 18 C24.67 18 24.34 18 24 18 C24 15.36 24 12.72 24 10 C23.34 10 22.68 10 22 10 C21.67 8.68 21.34 7.36 21 6 C20.34 6 19.68 6 19 6 C19.05220703 7.57201172 19.05220703 7.57201172 19.10546875 9.17578125 C19.13360937 10.55467147 19.16090924 11.93357902 19.1875 13.3125 C19.21263672 14.00279297 19.23777344 14.69308594 19.26367188 15.40429688 C19.30551763 18.29165421 19.32708461 20.45772814 17.8125 22.96875 C15.36581972 24.36082671 13.60949328 24.29647376 10.8125 24.1875 C9.46091797 24.14689453 9.46091797 24.14689453 8.08203125 24.10546875 C7.39496094 24.07066406 6.70789063 24.03585938 6 24 C6 23.67 6 23.34 6 23 C6.71027344 22.87882812 7.42054687 22.75765625 8.15234375 22.6328125 C9.07144531 22.46523437 9.99054688 22.29765625 10.9375 22.125 C12.31228516 21.88136719 12.31228516 21.88136719 13.71484375 21.6328125 C14.46894531 21.42398438 15.22304687 21.21515625 16 21 C17.22691067 18.54617866 17.20175931 16.80015897 17.25 14.0625 C17.27578125 13.18722656 17.3015625 12.31195313 17.328125 11.41015625 C17.18521193 8.97233273 17.18521193 8.97233273 15.74609375 7.2265625 C13.67944853 5.77482514 12.31476601 5.51760377 9.8125 5.3125 C8.554375 5.209375 7.29625 5.10625 6 5 C6 4.34 6 3.68 6 3 C6.99 2.67 7.98 2.34 9 2 C6.36 1.67 3.72 1.34 1 1 C1 9.58 1 18.16 1 27 C6.94 26.67 12.88 26.34 19 26 C17 28 17 28 13.0859375 28.1953125 C11.51549182 28.18386556 9.94514302 28.15788715 8.375 28.125 C4.229375 28.063125 4.229375 28.063125 0 28 C0 18.76 0 9.52 0 0 Z " fill="#DBFBFB" transform="translate(119,46)"/>
<path d="M0 0 C3.1875 1.9375 3.1875 1.9375 6 4 C5.25 10.75 5.25 10.75 3 13 C2.53709779 15.66242821 2.53709779 15.66242821 2.375 18.625 C2.30023438 19.62789062 2.22546875 20.63078125 2.1484375 21.6640625 C2.09945312 22.43492188 2.05046875 23.20578125 2 24 C0.68 24 -0.64 24 -2 24 C-2 20.37 -2 16.74 -2 13 C-2.66 13 -3.32 13 -4 13 C-6.31282587 9.53076119 -6.42478586 8.07794425 -6 4 C-4.14657225 1.44050454 -3.06243607 1.02081202 0 0 Z " fill="#E2AE27" transform="translate(174,48)"/>
<path d="M0 0 C7.26 0 14.52 0 22 0 C17 6 17 6 13.44921875 6.5859375 C12.20785156 6.51632813 10.96648437 6.44671875 9.6875 6.375 C8.43324219 6.32085937 7.17898437 6.26671875 5.88671875 6.2109375 C4.93410156 6.14132813 3.98148437 6.07171875 3 6 C3 6.99 3 7.98 3 9 C4.58941406 8.94779297 4.58941406 8.94779297 6.2109375 8.89453125 C7.59894252 8.86639601 8.98696463 8.83909557 10.375 8.8125 C11.07367188 8.78736328 11.77234375 8.76222656 12.4921875 8.73632812 C14.5234375 8.70703125 14.5234375 8.70703125 18 9 C18.99 10.485 18.99 10.485 20 12 C23.56769552 12.73606499 23.56769552 12.73606499 27 13 C27 13.66 27 14.32 27 15 C23.6875 15.1875 23.6875 15.1875 20 15 C19.5875 14.505 19.175 14.01 18.75 13.5 C15.96413243 11.11211351 12.79598289 11.68565048 9.3125 11.8125 C8.61060547 11.82603516 7.90871094 11.83957031 7.18554688 11.85351562 C5.45670171 11.88879818 3.72825235 11.94260417 2 12 C1.33400383 9.09781232 0.94513747 7.26212097 1.5625 4.3125 C1.706875 3.549375 1.85125 2.78625 2 2 C1.34 1.34 0.68 0.68 0 0 Z " fill="#ECFDFD" transform="translate(108,84)"/>
<path d="M0 0 C4.95 0 9.9 0 15 0 C15 0.33 15 0.66 15 1 C10.38 1 5.76 1 1 1 C1 10.24 1 19.48 1 29 C0.34 29 -0.32 29 -1 29 C-1 27.68 -1 26.36 -1 25 C-4.96 25.495 -4.96 25.495 -9 26 C-9 29.96 -9 33.92 -9 38 C-2.07 38 4.86 38 12 38 C12 38.33 12 38.66 12 39 C4.74 39 -2.52 39 -10 39 C-10 34.05 -10 29.1 -10 24 C-9.01 24 -8.02 24 -7 24 C-7 23.34 -7 22.68 -7 22 C-7.99 22 -8.98 22 -10 22 C-10 17.05 -10 12.1 -10 7 C-9.01 7 -8.02 7 -7 7 C-6.67 6.01 -6.34 5.02 -6 4 C-5.67 5.32 -5.34 6.64 -5 8 C-6.32 8 -7.64 8 -9 8 C-8.67 11.96 -8.34 15.92 -8 20 C-5.69 20.66 -3.38 21.32 -1 22 C-1.01160156 20.99839844 -1.02320312 19.99679688 -1.03515625 18.96484375 C-1.04454398 17.62239772 -1.05364312 16.27994964 -1.0625 14.9375 C-1.07410156 13.62652344 -1.08570312 12.31554687 -1.09765625 10.96484375 C-1 7 -1 7 0 0 Z " fill="#42B9BE" transform="translate(118,45)"/>
<path d="M0 0 C2.31 0 4.62 0 7 0 C9.42857143 7.42857143 9.42857143 7.42857143 8 11 C7.34 11 6.68 11 6 11 C6 10.01 6 9.02 6 8 C4.35 8.33 2.7 8.66 1 9 C1 10.32 1 11.64 1 13 C0.34 13 -0.32 13 -1 13 C-1 15.31 -1 17.62 -1 20 C-1.99 20 -2.98 20 -4 20 C-4.33 20.66 -4.66 21.32 -5 22 C-4.69121494 14.01790621 -3.06446761 7.36897561 0 0 Z " fill="#ECFCFB" transform="translate(64,113)"/>
<path d="M0 0 C2.536875 -0.04125 5.07375 -0.0825 7.6875 -0.125 C8.47729248 -0.14320801 9.26708496 -0.16141602 10.08081055 -0.18017578 C14.16967393 -0.21222908 17.40505047 -0.01423888 21 2 C23.08940868 5.13411302 23.27364412 5.97450472 23.25 9.5625 C23.25515625 10.34753906 23.2603125 11.13257813 23.265625 11.94140625 C23 14 23 14 21 16 C21.06960937 14.96939453 21.06960937 14.96939453 21.140625 13.91796875 C21.17671875 13.01691406 21.2128125 12.11585937 21.25 11.1875 C21.29640625 10.29417969 21.3428125 9.40085937 21.390625 8.48046875 C21.21191683 5.93063433 21.21191683 5.93063433 19.46875 4.21875 C16.11744999 2.56431076 12.9140722 2.4346621 9.25 2.3125 C5.66125 2.1578125 5.66125 2.1578125 2 2 C2 10.58 2 19.16 2 28 C3.32 28 4.64 28 6 28 C6 25.03 6 22.06 6 19 C6.33 19 6.66 19 7 19 C7 22.3 7 25.6 7 29 C4.69 29 2.38 29 0 29 C0 19.43 0 9.86 0 0 Z " fill="#B7EFF0" transform="translate(26,45)"/>
<path d="M0 0 C3.5625 0.25 3.5625 0.25 6.5625 2.25 C6.9937426 5.55619324 6.86958042 7.60171911 5.4375 10.625 C3.5625 12.25 3.5625 12.25 0.5625 12.6875 C-2.4375 12.25 -2.4375 12.25 -4.3125 11.1875 C-6.05723477 8.18267901 -5.74585443 5.64189869 -5.4375 2.25 C-3.4375 0.25 -3.4375 0.25 0 0 Z " fill="#EAAB1C" transform="translate(71.4375,39.75)"/>
<path d="M0 0 C0.99 0.66 1.98 1.32 3 2 C3.36328125 3.875 3.36328125 3.875 3.3125 6 C3.30863281 6.70125 3.30476563 7.4025 3.30078125 8.125 C3 10 3 10 1 12 C-2.4375 12.375 -2.4375 12.375 -6 12 C-8.41022129 9.900775 -8.90282867 8.56914635 -9.4375 5.4375 C-9 3 -9 3 -7.3125 1.1875 C-4.58927122 -0.21091478 -3.02327685 -0.3875996 0 0 Z " fill="#F5A80D" transform="translate(123,126)"/>
<path d="M0 0 C2.9375 0.75 2.9375 0.75 4.9375 2.75 C5.1875 6.25 5.1875 6.25 4.9375 9.75 C2.61221713 12.07528287 2.09084102 12.04511025 -1.0625 12.0625 C-1.76375 12.07925781 -2.465 12.09601563 -3.1875 12.11328125 C-3.80625 11.99339844 -4.425 11.87351562 -5.0625 11.75 C-7.0625 8.75 -7.0625 8.75 -6.875 5.1875 C-5.81721331 0.71224863 -4.63605151 -0.37845318 0 0 Z " fill="#EEAB19" transform="translate(27.0625,86.25)"/>
<path d="M0 0 C3.63 0 7.26 0 11 0 C11 4.29 11 8.58 11 13 C9.02 13 7.04 13 5 13 C5 11.02 5 9.04 5 7 C4.01 7 3.02 7 2 7 C2 9.64 2 12.28 2 15 C1.34 15 0.68 15 0 15 C0 10.05 0 5.1 0 0 Z " fill="#2FBBC0" transform="translate(143,52)"/>
<path d="M0 0 C3 0 3 0 5.1875 2 C5.785625 2.66 6.38375 3.32 7 4 C7 2.68 7 1.36 7 0 C11.23429756 1.31061591 15.07407404 2.94356259 19 5 C19 5.66 19 6.32 19 7 C17.56705502 7.84114171 16.12845595 8.67265687 14.6875 9.5 C13.88699219 9.9640625 13.08648437 10.428125 12.26171875 10.90625 C10 12 10 12 7 12 C6.9071875 11.1028125 6.9071875 11.1028125 6.8125 10.1875 C6.16980601 7.74330469 6.16980601 7.74330469 3.5 6.5625 C1 5 1 5 0.1875 2.3125 C0.0946875 1.1678125 0.0946875 1.1678125 0 0 Z " fill="#2BB0B3" transform="translate(25,134)"/>
<path d="M0 0 C0 4.95 0 9.9 0 15 C-7 14 -7 14 -8 13 C-8.07244053 10.98035801 -8.08377188 8.95832876 -8.0625 6.9375 C-8.05347656 5.83277344 -8.04445313 4.72804688 -8.03515625 3.58984375 C-8.02355469 2.73519531 -8.01195313 1.88054688 -8 1 C-5.10765685 0.17361624 -3.11257569 0 0 0 Z " fill="#04B0B5" transform="translate(117,52)"/>
<path d="M0 0 C1.32 0 2.64 0 4 0 C4 2.31 4 4.62 4 7 C5.32 7 6.64 7 8 7 C6.43358249 11.30764815 4.31663844 15.06171464 2 19 C-0.74792483 15.59780735 -4 11.51535412 -4 7 C-2.68 7 -1.36 7 0 7 C0 4.69 0 2.38 0 0 Z " fill="#14ADB0" transform="translate(172,84)"/>
<path d="M0 0 C4.23429756 1.31061591 8.07407404 2.94356259 12 5 C9.6975881 7.60045875 7.50103323 8.84739183 4.3125 10.1875 C3.50425781 10.53167969 2.69601563 10.87585937 1.86328125 11.23046875 C1.24839844 11.48441406 0.63351563 11.73835938 0 12 C0 10.68 0 9.36 0 8 C-0.598125 8.33 -1.19625 8.66 -1.8125 9 C-4 10 -4 10 -7 10 C-6.6875 8.125 -6.6875 8.125 -6 6 C-3 4 -3 4 0 4 C0 2.68 0 1.36 0 0 Z " fill="#11AEB3" transform="translate(95,40)"/>
<path d="M0 0 C1.99954746 -0.04254356 4.00041636 -0.04080783 6 0 C6.33 0.33 6.66 0.66 7 1 C10.36668196 1.20335663 13.72609932 1.34673179 17.09765625 1.4296875 C22.52724278 1.66704647 22.52724278 1.66704647 25.0078125 3.4140625 C26 5 26 5 26 7 C25.49984375 6.84660156 24.9996875 6.69320312 24.484375 6.53515625 C21.09672234 5.80542604 17.70038481 5.63643523 14.25 5.4375 C13.55261719 5.39431641 12.85523438 5.35113281 12.13671875 5.30664062 C10.42468078 5.20110404 8.71236439 5.1001009 7 5 C7 5.66 7 6.32 7 7 C4.69 6.67 2.38 6.34 0 6 C0 4.02 0 2.04 0 0 Z " fill="#1CACB2" transform="translate(148,42)"/>
<path d="M0 0 C2.64 0 5.28 0 8 0 C8.66 0.66 9.32 1.32 10 2 C7.36 2 4.72 2 2 2 C2 6.29 2 10.58 2 15 C4.64 14.67 7.28 14.34 10 14 C10.33 10.7 10.66 7.4 11 4 C11.33 4 11.66 4 12 4 C12.6132879 12.92674617 12.6132879 12.92674617 10.5 16.625 C8 18 8 18 0 18 C0 12.06 0 6.12 0 0 Z " fill="#2EA9AD" transform="translate(125,51)"/>
<path d="M0 0 C2.97 0 5.94 0 9 0 C9 1.32 9 2.64 9 4 C8.34 4 7.68 4 7 4 C7.34786708 5.97536745 7.34786708 5.97536745 8 8 C8.66 8.33 9.32 8.66 10 9 C7 11 7 11 3.9375 10.8125 C1 10 1 10 -1 7 C-0.625 3.3125 -0.625 3.3125 0 0 Z " fill="#F4A604" transform="translate(21,123)"/>
<path d="M0 0 C0.33 0 0.66 0 1 0 C0.67 2.31 0.34 4.62 0 7 C2.97 7 5.94 7 9 7 C9 7.33 9 7.66 9 8 C-6.51 8 -22.02 8 -38 8 C-38 10.97 -38 13.94 -38 17 C-39.98 16.34 -41.96 15.68 -44 15 C-42.68 14.67 -41.36 14.34 -40 14 C-40.020625 13.030625 -40.04125 12.06125 -40.0625 11.0625 C-40 8 -40 8 -39 7 C-36.55169574 6.91156207 -34.13179401 6.88471248 -31.68359375 6.90234375 C-30.95253922 6.9037587 -30.22148468 6.90517365 -29.46827698 6.90663147 C-27.12464368 6.91224592 -24.78110461 6.92480078 -22.4375 6.9375 C-20.85221492 6.94251314 -19.26692834 6.94707637 -17.68164062 6.95117188 C-13.7877239 6.96222003 -9.89387795 6.97949428 -6 7 C-5.67 5.68 -5.34 4.36 -5 3 C-4.34 3.99 -3.68 4.98 -3 6 C-2.01 4.02 -1.02 2.04 0 0 Z " fill="#D4FDFD" transform="translate(177,96)"/>
<path d="M0 0 C1.76337678 2.64506516 2.6560851 4.59213967 3.625 7.5625 C3.88539062 8.34753906 4.14578125 9.13257812 4.4140625 9.94140625 C5 12 5 12 5 14 C3.68 14.33 2.36 14.66 1 15 C1 14.01 1 13.02 1 12 C0.34 12 -0.32 12 -1 12 C-1 12.99 -1 13.98 -1 15 C-3.31 15 -5.62 15 -8 15 C-7.01 11.7 -6.02 8.4 -5 5 C-4.01 5 -3.02 5 -2 5 C-2 5.99 -2 6.98 -2 8 C-1.34 7.67 -0.68 7.34 0 7 C0 4.69 0 2.38 0 0 Z " fill="#DBF7F8" transform="translate(72,116)"/>
<path d="M0 0 C0.99 0 1.98 0 3 0 C3.12375 1.11375 3.2475 2.2275 3.375 3.375 C3.6465813 7.03103677 3.6465813 7.03103677 6 9 C10.16937798 9.23600253 13.94392005 8.98329211 18 8 C16.125 11.875 16.125 11.875 15 13 C5.48010729 14.10147519 5.48010729 14.10147519 1.3125 11 C-0.42193044 7.03558756 -0.29163811 4.30166212 0 0 Z " fill="#32ACA9" transform="translate(103,130)"/>
<path d="M0 0 C1.65 0 3.3 0 5 0 C4.67 0.66 4.34 1.32 4 2 C3.34 2 2.68 2 2 2 C2 13.22 2 24.44 2 36 C1.01 36.495 1.01 36.495 0 37 C0 24.79 0 12.58 0 0 Z " fill="#E0FDFC" transform="translate(61,47)"/>
<path d="M0 0 C1.47906892 -0.02689216 2.95827483 -0.04634621 4.4375 -0.0625 C5.26121094 -0.07410156 6.08492187 -0.08570313 6.93359375 -0.09765625 C9 0 9 0 10 1 C10.1875 3.4375 10.1875 3.4375 10 6 C8 8 8 8 6.0546875 8.1953125 C4.03645833 8.13020833 2.01822917 8.06510417 0 8 C0 5.36 0 2.72 0 0 Z " fill="#33ACB0" transform="translate(33,51)"/>
<path d="M0 0 C0.66 0.33 1.32 0.66 2 1 C2.125 7.75 2.125 7.75 1 10 C2.98 9.67 4.96 9.34 7 9 C3.375 12 3.375 12 0 12 C-0.33 11.01 -0.66 10.02 -1 9 C-1.99 9.495 -1.99 9.495 -3 10 C-3.46651207 12.12576782 -3.46651207 12.12576782 -3.625 14.5625 C-3.69976562 15.38878906 -3.77453125 16.21507813 -3.8515625 17.06640625 C-3.90054688 17.70449219 -3.94953125 18.34257813 -4 19 C-4.99 19 -5.98 19 -7 19 C-7.62485037 9.90495571 -7.62485037 9.90495571 -5.1875 6.375 C-3 5 -3 5 0 5 C0 3.35 0 1.7 0 0 Z " fill="#21A7A2" transform="translate(126,107)"/>
<path d="M0 0 C1.134375 0.020625 2.26875 0.04125 3.4375 0.0625 C4.0975 1.3825 4.7575 2.7025 5.4375 4.0625 C7.0875 4.0625 8.7375 4.0625 10.4375 4.0625 C10.4375 5.0525 10.4375 6.0425 10.4375 7.0625 C9.7775 7.7225 9.1175 8.3825 8.4375 9.0625 C6.45242176 8.49961205 4.47447437 7.91152373 2.5 7.3125 C1.39785156 6.98765625 0.29570312 6.6628125 -0.83984375 6.328125 C-3.5625 5.0625 -3.5625 5.0625 -4.50390625 2.984375 C-4.52324219 2.35015625 -4.54257813 1.7159375 -4.5625 1.0625 C-3.5625 0.0625 -3.5625 0.0625 0 0 Z " fill="#27AFB4" transform="translate(162.5625,117.9375)"/>
<path d="M0 0 C0.8971875 0.5259375 0.8971875 0.5259375 1.8125 1.0625 C1.8125 3.3725 1.8125 5.6825 1.8125 8.0625 C0.8225 8.0625 -0.1675 8.0625 -1.1875 8.0625 C-1.5175 7.4025 -1.8475 6.7425 -2.1875 6.0625 C-3.1775 7.5475 -3.1775 7.5475 -4.1875 9.0625 C-5.5075 9.0625 -6.8275 9.0625 -8.1875 9.0625 C-8.55377907 3.56831395 -8.55377907 3.56831395 -6.875 1.25 C-4.33099783 -0.54022375 -2.93305311 -1.25702276 0 0 Z " fill="#F6A604" transform="translate(176.1875,48.9375)"/>
<path d="M0 0 C0.99 0 1.98 0 3 0 C3 4.95 3 9.9 3 15 C-4.26 15 -11.52 15 -19 15 C-19 14.67 -19 14.34 -19 14 C-14.05 13.67 -9.1 13.34 -4 13 C-4 11.35 -4 9.7 -4 8 C-2.02 8 -0.04 8 2 8 C1.34 5.36 0.68 2.72 0 0 Z " fill="#62C5C7" transform="translate(152,69)"/>
<path d="M0 0 C0.66 0.33 1.32 0.66 2 1 C2.125 8.75 2.125 8.75 1 11 C2.32 11.33 3.64 11.66 5 12 C-1.34507042 12.35915493 -1.34507042 12.35915493 -3.9375 10.9375 C-5.55479605 7.98831309 -5.18630138 5.29132441 -5 2 C-3.35 2 -1.7 2 0 2 C0 1.34 0 0.68 0 0 Z " fill="#FBFDF9" transform="translate(111,128)"/>
<path d="M0 0 C5.94 0 11.88 0 18 0 C18.33 0.99 18.66 1.98 19 3 C19.99 3.33 20.98 3.66 22 4 C22.33 4.99 22.66 5.98 23 7 C21.02 7 19.04 7 17 7 C16.34 5.68 15.68 4.36 15 3 C10.05 3 5.1 3 0 3 C0 2.01 0 1.02 0 0 Z " fill="#169097" transform="translate(111,90)"/>
<path d="M0 0 C1.32 0 2.64 0 4 0 C4.48512072 7.1555306 4.48512072 7.1555306 2.3125 10.9375 C-0.21195277 13.18903896 -1.67042093 13.72253508 -5 14 C-5 12.35 -5 10.7 -5 9 C-3.68 8.67 -2.36 8.34 -1 8 C-0.67 5.36 -0.34 2.72 0 0 Z " fill="#4BB2A8" transform="translate(87,62)"/>
<path d="M0 0 C1.32 0 2.64 0 4 0 C4 2.64 4 5.28 4 8 C4.99 8 5.98 8 7 8 C8.4783226 10.95664519 8.06032783 13.74229737 8 17 C7.01 17 6.02 17 5 17 C4.67 15.68 4.34 14.36 4 13 C4.66 13 5.32 13 6 13 C6 11.68 6 10.36 6 9 C3.36 9 0.72 9 -2 9 C-1.34 8.67 -0.68 8.34 0 8 C0 5.36 0 2.72 0 0 Z " fill="#E3B234" transform="translate(24,114)"/>
<path d="M0 0 C0.33 0.99 0.66 1.98 1 3 C2.05960937 2.96519531 3.11921875 2.93039063 4.2109375 2.89453125 C5.59894252 2.86639601 6.98696463 2.83909557 8.375 2.8125 C9.07367188 2.78736328 9.77234375 2.76222656 10.4921875 2.73632812 C12.5234375 2.70703125 12.5234375 2.70703125 16 3 C16.99 4.485 16.99 4.485 18 6 C21.56769552 6.73606499 21.56769552 6.73606499 25 7 C25 7.66 25 8.32 25 9 C21.6875 9.1875 21.6875 9.1875 18 9 C17.5875 8.505 17.175 8.01 16.75 7.5 C13.96413243 5.11211351 10.79598289 5.68565048 7.3125 5.8125 C6.61060547 5.82603516 5.90871094 5.83957031 5.18554688 5.85351562 C3.45670171 5.88879818 1.72825235 5.94260417 0 6 C-0.38218767 4.34385343 -0.71395102 2.67542976 -1 1 C-0.67 0.67 -0.34 0.34 0 0 Z " fill="#CAF3F4" transform="translate(110,90)"/>
<path d="M0 0 C1.98 0 3.96 0 6 0 C4.02 0.99 4.02 0.99 2 2 C2.32960216 7.01535052 2.32960216 7.01535052 5 11 C3.35 11.33 1.7 11.66 0 12 C0 11.34 0 10.68 0 10 C-0.99 9.67 -1.98 9.34 -3 9 C-3 7.02 -3 5.04 -3 3 C-2.34 3 -1.68 3 -1 3 C-0.67 2.01 -0.34 1.02 0 0 Z " fill="#F9FDFD" transform="translate(156,115)"/>
<path d="M0 0 C2.475 0.99 2.475 0.99 5 2 C5 1.34 5 0.68 5 0 C5.99 0.33 6.98 0.66 8 1 C8 3.31 8 5.62 8 8 C5.36 8 2.72 8 0 8 C0 5.36 0 2.72 0 0 Z " fill="#F6A705" transform="translate(73,69)"/>
<path d="M0 0 C1.11375 0.3403125 1.11375 0.3403125 2.25 0.6875 C1.92 2.9975 1.59 5.3075 1.25 7.6875 C-1.0625 8 -1.0625 8 -3.75 7.6875 C-5.5625 5.1875 -5.5625 5.1875 -6.75 2.6875 C-4.29511132 0.41445492 -3.41240272 -0.38777304 0 0 Z " fill="#F6A703" transform="translate(28.75,105.3125)"/>
<path d="M0 0 C0.33 0.66 0.66 1.32 1 2 C3.97 2 6.94 2 10 2 C5.82091936 4.08954032 5.19589427 4.16552619 1 3 C0.690625 3.639375 0.38125 4.27875 0.0625 4.9375 C-1 7 -1 7 -2 8 C-3.56172745 8.08685603 -5.12729344 8.10702219 -6.69140625 8.09765625 C-7.63564453 8.09443359 -8.57988281 8.09121094 -9.55273438 8.08789062 C-10.54595703 8.07951172 -11.53917969 8.07113281 -12.5625 8.0625 C-13.55958984 8.05798828 -14.55667969 8.05347656 -15.58398438 8.04882812 C-18.05604849 8.03700007 -20.52799518 8.02051849 -23 8 C-23 7.67 -23 7.34 -23 7 C-21.83082031 6.97421875 -20.66164063 6.9484375 -19.45703125 6.921875 C-17.90881774 6.86557633 -16.3606421 6.80822938 -14.8125 6.75 C-13.65911133 6.72873047 -13.65911133 6.72873047 -12.48242188 6.70703125 C-7.4401215 6.49062351 -4.6609871 5.78183522 -1 2 C-0.67 1.34 -0.34 0.68 0 0 Z " fill="#24B0B4" transform="translate(142,67)"/>
<path d="M0 0 C5.61 0 11.22 0 17 0 C17 0.99 17 1.98 17 3 C11.39 3 5.78 3 0 3 C0 2.01 0 1.02 0 0 Z " fill="#1F969D" transform="translate(135,90)"/>
<path d="M0 0 C2.64 0 5.28 0 8 0 C8 0.99 8 1.98 8 3 C7.34 3 6.68 3 6 3 C6 4.65 6 6.3 6 8 C4.35 8 2.7 8 1 8 C-0.35439668 5.29120665 -0.06501451 2.99066732 0 0 Z " fill="#F5A701" transform="translate(85,53)"/>
<path d="M0 0 C1.32 0 2.64 0 4 0 C4 2.31 4 4.62 4 7 C5.32 7 6.64 7 8 7 C6.92598892 9.91517292 6.22189824 11.77810176 4 14 C3.896875 13.21625 3.79375 12.4325 3.6875 11.625 C3.22404978 8.66954819 3.22404978 8.66954819 0 7 C-0.1875 3.375 -0.1875 3.375 0 0 Z " fill="#3DB2AF" transform="translate(172,84)"/>
<path d="M0 0 C1 3 1 3 1 7 C1.66 7.33 2.32 7.66 3 8 C4.50637312 14.14136732 4.50637312 14.14136732 2.5625 17.4375 C2.046875 17.953125 1.53125 18.46875 1 19 C-0.32 18.67 -1.64 18.34 -3 18 C-2.01 17.34 -1.02 16.68 0 16 C0.5 12.5 0.5 12.5 0 9 C-0.99 8.34 -1.98 7.68 -3 7 C-2.25 2.25 -2.25 2.25 0 0 Z " fill="#FCF5D5" transform="translate(31,96)"/>
<path d="M0 0 C0.99 0 1.98 0 3 0 C3 4.95 3 9.9 3 15 C2.01 15.33 1.02 15.66 0 16 C0 10.72 0 5.44 0 0 Z " fill="#2BAAA5" transform="translate(72,52)"/>
<path d="M0 0 C2.475 0.99 2.475 0.99 5 2 C4.01 2.495 4.01 2.495 3 3 C2.34 2.67 1.68 2.34 1 2 C0.67 3.32 0.34 4.64 0 6 C0.66 6.33 1.32 6.66 2 7 C2 7.66 2 8.32 2 9 C2.66 9.33 3.32 9.66 4 10 C2.02 10.99 2.02 10.99 0 12 C0 10.68 0 9.36 0 8 C-0.598125 8.33 -1.19625 8.66 -1.8125 9 C-4 10 -4 10 -7 10 C-6.6875 8.125 -6.6875 8.125 -6 6 C-3 4 -3 4 0 4 C0 2.68 0 1.36 0 0 Z " fill="#2BABAB" transform="translate(95,40)"/>
<path d="M0 0 C2.5625 2.0625 2.5625 2.0625 5 5 C4.6875 8.5 4.6875 8.5 4 12 C4.81971716 14.84902067 4.81971716 14.84902067 6 17 C4.35 17 2.7 17 1 17 C1 13.7 1 10.4 1 7 C-0.32 7.33 -1.64 7.66 -3 8 C-2.01 5.36 -1.02 2.72 0 0 Z " fill="#FCF7D7" transform="translate(111,122)"/>
<path d="M0 0 C1.43739513 -0.02712066 2.87493863 -0.04645067 4.3125 -0.0625 C5.51326172 -0.07990234 5.51326172 -0.07990234 6.73828125 -0.09765625 C9 0 9 0 12 1 C13.1875 3.5625 13.1875 3.5625 14 6 C12.68 6 11.36 6 10 6 C10 5.34 10 4.68 10 4 C6.7 3.67 3.4 3.34 0 3 C0 2.01 0 1.02 0 0 Z " fill="#1AA9AB" transform="translate(92,112)"/>
<path d="M0 0 C0.33 0 0.66 0 1 0 C2.0229267 10.81154832 1.86039692 21.18547252 1 32 C0.67 32 0.34 32 0 32 C0 27.05 0 22.1 0 17 C-0.99 17 -1.98 17 -3 17 C-3 16.01 -3 15.02 -3 14 C-2.01 14 -1.02 14 0 14 C0 9.38 0 4.76 0 0 Z " fill="#CEFBFC" transform="translate(155,52)"/>
<path d="M0 0 C0.33 0 0.66 0 1 0 C1 4.62 1 9.24 1 14 C1.99 14 2.98 14 4 14 C4 14.99 4 15.98 4 17 C1.11424181 16.60196439 0.17810487 16.20990931 -1.75 13.9375 C-2.1625 13.298125 -2.575 12.65875 -3 12 C-2.34 11.67 -1.68 11.34 -1 11 C-2.65 9.68 -4.3 8.36 -6 7 C-4.68 7 -3.36 7 -2 7 C-1.34 4.69 -0.68 2.38 0 0 Z " fill="#C1F6F8" transform="translate(107,35)"/>
<path d="M0 0 C2.31 0 4.62 0 7 0 C5.8141763 3.37503669 4.72426311 5.64722731 2 8 C0.4375 6.8125 0.4375 6.8125 -1 5 C-0.6875 2.3125 -0.6875 2.3125 0 0 Z " fill="#F7A603" transform="translate(101,121)"/>
<path d="M0 0 C1.65 0 3.3 0 5 0 C5 0.99 5 1.98 5 3 C5.66 3 6.32 3 7 3 C7 4.65 7 6.3 7 8 C4.36 8 1.72 8 -1 8 C-0.34 7.01 0.32 6.02 1 5 C0.6878236 2.35367713 0.6878236 2.35367713 0 0 Z " fill="#F6A704" transform="translate(24,89)"/>
<path d="M0 0 C0.33 1.32 0.66 2.64 1 4 C3.31 3.34 5.62 2.68 8 2 C8 2.66 8 3.32 8 4 C7.01 4 6.02 4 5 4 C5 4.66 5 5.32 5 6 C4.05125 6.28875 3.1025 6.5775 2.125 6.875 C-1.05211578 7.76825109 -1.05211578 7.76825109 -3 10 C-3.29296875 3.9453125 -3.29296875 3.9453125 -3 2 C-2.01 1.34 -1.02 0.68 0 0 Z " fill="#D4F9F9" transform="translate(125,115)"/>
<path d="M0 0 C0.66 0 1.32 0 2 0 C3.23076923 5.41538462 3.23076923 5.41538462 2.0625 8.375 C1.711875 8.91125 1.36125 9.4475 1 10 C2.32 10.33 3.64 10.66 5 11 C1.77208445 13.1519437 0.71599191 13.20086443 -3 13 C-2.67 12.01 -2.34 11.02 -2 10 C-4.31 9.67 -6.62 9.34 -9 9 C-9 8.67 -9 8.34 -9 8 C-6.94921875 7.77213542 -4.8984375 7.54427083 -2.84765625 7.31640625 C-0.98859771 7.18113386 -0.98859771 7.18113386 0 6 C0.04080783 4.00041636 0.04254356 1.99954746 0 0 Z " fill="#D7FAFB" transform="translate(42,51)"/>
<path d="M0 0 C-0.9590625 0.1546875 -0.9590625 0.1546875 -1.9375 0.3125 C-2.618125 0.539375 -3.29875 0.76625 -4 1 C-4.33 1.99 -4.66 2.98 -5 4 C-5.66 4 -6.32 4 -7 4 C-7.33 4.66 -7.66 5.32 -8 6 C-7.01 6 -6.02 6 -5 6 C-5 7.65 -5 9.3 -5 11 C-3.02 11 -1.04 11 1 11 C1 11.33 1 11.66 1 12 C-2.3125 12.25 -2.3125 12.25 -6 12 C-8.41022129 9.900775 -8.90282867 8.56914635 -9.4375 5.4375 C-9 3 -9 3 -7.3125 1.1875 C-4.65769564 -0.17577792 -2.94425817 -0.24535485 0 0 Z " fill="#E4B234" transform="translate(123,126)"/>
<path d="M0 0 C1.32 0 2.64 0 4 0 C4 3.3 4 6.6 4 10 C2.68 10 1.36 10 0 10 C0 6.7 0 3.4 0 0 Z " fill="#3DB6B3" transform="translate(172,62)"/>
<path d="M0 0 C3.31012244 3.31012244 3.50351065 4.53159589 4 9 C1.69 9 -0.62 9 -3 9 C-2.01 6.03 -1.02 3.06 0 0 Z " fill="#3AB3B5" transform="translate(67,122)"/>
<path d="M0 0 C2.9375 0.75 2.9375 0.75 4.9375 2.75 C5.0625 6.375 5.0625 6.375 4.9375 9.75 C4.6075 8.43 4.2775 7.11 3.9375 5.75 C3.2775 5.75 2.6175 5.75 1.9375 5.75 C1.6075 6.41 1.2775 7.07 0.9375 7.75 C1.2675 6.1 1.5975 4.45 1.9375 2.75 C-0.7025 3.08 -3.3425 3.41 -6.0625 3.75 C-6.0625 3.09 -6.0625 2.43 -6.0625 1.75 C-3.0625 -0.25 -3.0625 -0.25 0 0 Z " fill="#DFAF32" transform="translate(27.0625,86.25)"/>
<path d="M0 0 C1.3703055 1.97485205 2.70672372 3.97386717 4 6 C-1 4 -1 4 -3.1875 2.96875 C-6.71209953 1.75472127 -10.12245915 1.5444947 -13.8125 1.375 C-14.50537109 1.33632813 -15.19824219 1.29765625 -15.91210938 1.2578125 C-17.60767015 1.16426432 -19.30379712 1.08107636 -21 1 C-21 0.67 -21 0.34 -21 0 C-17.87549468 -0.19645093 -14.75038555 -0.38063489 -11.625 -0.5625 C-10.29082031 -0.64661133 -10.29082031 -0.64661133 -8.9296875 -0.73242188 C-7.65351563 -0.80493164 -7.65351563 -0.80493164 -6.3515625 -0.87890625 C-5.56604004 -0.9260376 -4.78051758 -0.97316895 -3.97119141 -1.02172852 C-2 -1 -2 -1 0 0 Z " fill="#20ABB0" transform="translate(139,44)"/>
<path d="M0 0 C0.226875 0.556875 0.45375 1.11375 0.6875 1.6875 C2.35702054 4.62903619 4.58675821 6.6486362 7 9 C7.33 9.66 7.66 10.32 8 11 C4.7 10.67 1.4 10.34 -2 10 C-2 9.34 -2 8.68 -2 8 C-1.34 8 -0.68 8 0 8 C-0.2784375 6.2984375 -0.2784375 6.2984375 -0.5625 4.5625 C-0.7790625 2.7990625 -0.7790625 2.7990625 -1 1 C-0.67 0.67 -0.34 0.34 0 0 Z " fill="#1FB2B3" transform="translate(150,132)"/>
<path d="M0 0 C0.33 0 0.66 0 1 0 C0.67 2.31 0.34 4.62 0 7 C2.97 7 5.94 7 9 7 C9 7.33 9 7.66 9 8 C3.06 8 -2.88 8 -9 8 C-8.01 7.67 -7.02 7.34 -6 7 C-5.26676204 4.98491642 -5.26676204 4.98491642 -5 3 C-4.01 4.485 -4.01 4.485 -3 6 C-2.01 4.02 -1.02 2.04 0 0 Z " fill="#C5F7F7" transform="translate(177,96)"/>
<path d="M0 0 C1.65 0 3.3 0 5 0 C4.67 1.65 4.34 3.3 4 5 C4.66 5.33 5.32 5.66 6 6 C4.72125 6.2475 3.4425 6.495 2.125 6.75 C-1.26747318 7.51990586 -1.26747318 7.51990586 -3.5 10.125 C-3.665 10.74375 -3.83 11.3625 -4 12 C-4.1875 9.625 -4.1875 9.625 -4 7 C-3.01 6.34 -2.02 5.68 -1 5 C-0.27034634 2.43717258 -0.27034634 2.43717258 0 0 Z " fill="#DEAF3D" transform="translate(24,98)"/>
<path d="M0 0 C0.99 0 1.98 0 3 0 C3 2.64 3 5.28 3 8 C1.02 8.99 1.02 8.99 -1 10 C-1.66 8.68 -2.32 7.36 -3 6 C-2.01 6 -1.02 6 0 6 C-0.185625 5.38125 -0.37125 4.7625 -0.5625 4.125 C-1 2 -1 2 0 0 Z " fill="#F0FDEF" transform="translate(84,62)"/>
<path d="M0 0 C1.98 0 3.96 0 6 0 C6.66 2.31 7.32 4.62 8 7 C6.35 6.67 4.7 6.34 3 6 C2.67 4.68 2.34 3.36 2 2 C1.34 2 0.68 2 0 2 C0 1.34 0 0.68 0 0 Z " fill="#FEFAEE" transform="translate(110,120)"/>
<path d="M0 0 C1.98 0 3.96 0 6 0 C6.33 0.66 6.66 1.32 7 2 C6.34 2 5.68 2 5 2 C5 3.32 5 4.64 5 6 C5.66 6.33 6.32 6.66 7 7 C4.69 6.67 2.38 6.34 0 6 C0 4.02 0 2.04 0 0 Z " fill="#7FD6D9" transform="translate(148,42)"/>
<path d="M0 0 C0.33 0 0.66 0 1 0 C1 2.97 1 5.94 1 9 C-1.31 9.66 -3.62 10.32 -6 11 C-5.6875 9.125 -5.6875 9.125 -5 7 C-4.01 6.34 -3.02 5.68 -2 5 C-0.79549696 2.44816596 -0.79549696 2.44816596 0 0 Z " fill="#F6FDFC" transform="translate(172,130)"/>
<path d="M0 0 C1.65 0 3.3 0 5 0 C5 0.66 5 1.32 5 2 C5.99 2 6.98 2 8 2 C8 2.66 8 3.32 8 4 C5.33333333 4.66666667 2.66666667 5.33333333 0 6 C-1.125 2.25 -1.125 2.25 0 0 Z " fill="#02B1B7" transform="translate(33,137)"/>
<path d="M0 0 C0.33 0 0.66 0 1 0 C1.33 2.31 1.66 4.62 2 7 C2.5775 7.144375 3.155 7.28875 3.75 7.4375 C5.83333333 7.95833333 7.91666667 8.47916667 10 9 C7 11 7 11 3.9375 10.8125 C1 10 1 10 -1 7 C-0.625 3.3125 -0.625 3.3125 0 0 Z " fill="#E5AE32" transform="translate(21,123)"/>
<path d="M0 0 C0.33 0 0.66 0 1 0 C1 1.65 1 3.3 1 5 C1.66 5.33 2.32 5.66 3 6 C2.34 6.66 1.68 7.32 1 8 C0.35232207 10.57061311 0.35232207 10.57061311 0 13 C-1.32 12.34 -2.64 11.68 -4 11 C-4 10.01 -4 9.02 -4 8 C-3.01 7.34 -2.02 6.68 -1 6 C-0.26656572 2.93443402 -0.26656572 2.93443402 0 0 Z " fill="#ECF5DF" transform="translate(32,125)"/>
<path d="M0 0 C0.66 1.32 1.32 2.64 2 4 C1.48953125 3.84660156 0.9790625 3.69320312 0.453125 3.53515625 C-2.7749338 2.83094597 -5.95418001 2.65111796 -9.25 2.4375 C-10.51328125 2.35371094 -11.7765625 2.26992188 -13.078125 2.18359375 C-14.04234375 2.12300781 -15.0065625 2.06242187 -16 2 C-16 1.67 -16 1.34 -16 1 C-10.62915894 0.31798844 -5.41499441 -0.11521265 0 0 Z " fill="#27A6A1" transform="translate(172,45)"/>
<path d="M0 0 C2.125 0.375 2.125 0.375 4 1 C3.01 2.485 3.01 2.485 2 4 C1.60612212 6.32387947 1.26513915 8.65793749 1 11 C0.34 11 -0.32 11 -1 11 C-1.22174933 9.54364629 -1.42698698 8.08477044 -1.625 6.625 C-1.74101563 5.81289062 -1.85703125 5.00078125 -1.9765625 4.1640625 C-1.98429687 3.44992188 -1.99203125 2.73578125 -2 2 C-1.34 1.34 -0.68 0.68 0 0 Z " fill="#FDF4D4" transform="translate(98,117)"/>
<path d="M0 0 C0.66 0.33 1.32 0.66 2 1 C2.125 7.75 2.125 7.75 1 10 C2.98 9.67 4.96 9.34 7 9 C3.375 12 3.375 12 0 12 C-0.12375 11.21625 -0.2475 10.4325 -0.375 9.625 C-0.79117993 6.85942178 -0.79117993 6.85942178 -3 5 C-2.01 5 -1.02 5 0 5 C0 3.35 0 1.7 0 0 Z " fill="#33B5B6" transform="translate(126,107)"/>
<path d="M0 0 C0.66 0 1.32 0 2 0 C2.36 5.4 2.36 5.4 0.875 7.875 C-1.78034983 9.4682099 -3.96789518 9.20214032 -7 9 C-7 8.67 -7 8.34 -7 8 C-5.35 8 -3.7 8 -2 8 C-2.33 7.01 -2.66 6.02 -3 5 C-2.67 4.34 -2.34 3.68 -2 3 C-1.34 3 -0.68 3 0 3 C0 2.01 0 1.02 0 0 Z " fill="#EAAA22" transform="translate(93,53)"/>
<path d="M0 0 C1.98 0 3.96 0 6 0 C6 1.65 6 3.3 6 5 C4.02 5 2.04 5 0 5 C0 3.35 0 1.7 0 0 Z " fill="#04B0B4" transform="translate(35,52)"/>
<path d="M0 0 C0.66 0 1.32 0 2 0 C2 1.98 2 3.96 2 6 C0.02 6 -1.96 6 -4 6 C-4 5.01 -4 4.02 -4 3 C-4.66 2.67 -5.32 2.34 -6 2 C-4.02 2 -2.04 2 0 2 C0 1.34 0 0.68 0 0 Z " fill="#0EA5AA" transform="translate(116,46)"/>
<path d="M0 0 C1.875 0.3125 1.875 0.3125 4 1 C6.15502531 4.23253796 6.46856135 5.25150923 6 9 C4.5 10.8125 4.5 10.8125 3 12 C2.34 11.67 1.68 11.34 1 11 C1.33 10.67 1.66 10.34 2 10 C2.23075082 8.65252916 2.41153063 7.29622435 2.5625 5.9375 C2.7790625 3.9884375 2.7790625 3.9884375 3 2 C2.01 1.67 1.02 1.34 0 1 C0 0.67 0 0.34 0 0 Z " fill="#FBF2CA" transform="translate(123,126)"/>
<path d="M0 0 C1.32 0 2.64 0 4 0 C4 2.31 4 4.62 4 7 C2.68 7 1.36 7 0 7 C0 4.69 0 2.38 0 0 Z " fill="#50B4A3" transform="translate(24,114)"/>
<path d="M0 0 C0.66 0.99 1.32 1.98 2 3 C2.99 3.33 3.98 3.66 5 4 C5.33 4.99 5.66 5.98 6 7 C3.125 7.125 3.125 7.125 0 7 C-0.66 6.34 -1.32 5.68 -2 5 C-2 4.01 -2 3.02 -2 2 C-1.34 2 -0.68 2 0 2 C0 1.34 0 0.68 0 0 Z " fill="#25999D" transform="translate(128,90)"/>
<path d="M0 0 C1.65 0 3.3 0 5 0 C6.24546405 2.49092811 5.7767578 3.41080733 5 6 C3.68 6 2.36 6 1 6 C0.67 4.02 0.34 2.04 0 0 Z " fill="#F5A801" transform="translate(67,43)"/>
<path d="M0 0 C2.35953094 2.35953094 2.49141413 3.77895617 3 7 C3.99 7 4.98 7 6 7 C6 7.66 6 8.32 6 9 C7.32 9.33 8.64 9.66 10 10 C3.65492958 10.35915493 3.65492958 10.35915493 1.0625 8.9375 C-0.55479605 5.98831309 -0.18630138 3.29132441 0 0 Z " fill="#CBF4F0" transform="translate(106,130)"/>
<path d="M0 0 C1.98 0 3.96 0 6 0 C6 0.66 6 1.32 6 2 C6.66 2 7.32 2 8 2 C8 2.66 8 3.32 8 4 C5.36 4 2.72 4 0 4 C0 2.68 0 1.36 0 0 Z " fill="#03B0B4" transform="translate(159,131)"/>
<path d="M0 0 C0.33 0.66 0.66 1.32 1 2 C-0.98 2 -2.96 2 -5 2 C-5 5.3 -5 8.6 -5 12 C-5.99 12 -6.98 12 -8 12 C-7.67 8.7 -7.34 5.4 -7 2 C-4.69 1.34 -2.38 0.68 0 0 Z " fill="#0EACAC" transform="translate(33,74)"/>
<path d="M0 0 C0.66 0 1.32 0 2 0 C2.33 2.64 2.66 5.28 3 8 C4.98 8 6.96 8 9 8 C9 8.33 9 8.66 9 9 C5.625 9.125 5.625 9.125 2 9 C0 7 0 7 -0.125 3.375 C-0.08375 2.26125 -0.0425 1.1475 0 0 Z " fill="#E7AE2A" transform="translate(168,75)"/>
<path d="M0 0 C1.65 0.33 3.3 0.66 5 1 C3.5 3.5625 3.5 3.5625 1 6 C-1.87728254 6.15374792 -4.14553142 5.61846819 -7 5 C-7 4.67 -7 4.34 -7 4 C-4.36 4 -1.72 4 1 4 C0.67 2.68 0.34 1.36 0 0 Z " fill="#0FAAAF" transform="translate(81,138)"/>
<path d="M0 0 C0.33 0 0.66 0 1 0 C1 1.98 1 3.96 1 6 C1.763125 5.79375 2.52625 5.5875 3.3125 5.375 C6 5 6 5 9 7 C8 8 8 8 4.5 8.125 C1 8 1 8 0 7 C-0.04092937 4.66702567 -0.04241723 2.33294775 0 0 Z " fill="#E9AE2B" transform="translate(72,71)"/>
<path d="M0 0 C1.98 0 3.96 0 6 0 C6 0.66 6 1.32 6 2 C7.32 2.33 8.64 2.66 10 3 C9.67 3.66 9.34 4.32 9 5 C4.545 4.01 4.545 4.01 0 3 C0 2.01 0 1.02 0 0 Z " fill="#FCF3CE" transform="translate(68,37)"/>
<path d="M0 0 C1.65 0 3.3 0 5 0 C4.67 1.65 4.34 3.3 4 5 C2.68 4.67 1.36 4.34 0 4 C0 2.68 0 1.36 0 0 Z " fill="#D1FBFB" transform="translate(129,89)"/>
<path d="M0 0 C-0.35049575 3.24208567 -0.56221181 4.61527704 -3.0625 6.8125 C-3.701875 7.204375 -4.34125 7.59625 -5 8 C-5.75 6.25 -5.75 6.25 -6 4 C-2.77777778 0 -2.77777778 0 0 0 Z " fill="#E7FCFC" transform="translate(143,64)"/>
<path d="M0 0 C2.1875 1.4375 2.1875 1.4375 4 3 C1.36 3 -1.28 3 -4 3 C-4.33 5.31 -4.66 7.62 -5 10 C-5.33 10 -5.66 10 -6 10 C-6.36627907 4.50581395 -6.36627907 4.50581395 -4.6875 2.1875 C-3 1 -3 1 0 0 Z " fill="#D9B240" transform="translate(174,48)"/>
<path d="M0 0 C0.99 0.33 1.98 0.66 3 1 C2.505 1.350625 2.01 1.70125 1.5 2.0625 C-0.73063966 4.94374289 -0.19980621 7.47009026 0 11 C-0.66 11 -1.32 11 -2 11 C-2 7.7 -2 4.4 -2 1 C-1.34 0.67 -0.68 0.34 0 0 Z " fill="#FEF5CA" transform="translate(21,101)"/>
<path d="M0 0 C6.625 -0.25 6.625 -0.25 10 2 C10.1875 5.125 10.1875 5.125 10 8 C9.67 6.68 9.34 5.36 9 4 C8.01 4 7.02 4 6 4 C6 3.01 6 2.02 6 1 C4.02 1 2.04 1 0 1 C0 0.67 0 0.34 0 0 Z " fill="#EAB437" transform="translate(68,40)"/>
<path d="M0 0 C0.33 0 0.66 0 1 0 C1.33 3.3 1.66 6.6 2 10 C0.02 10 -1.96 10 -4 10 C-3.525625 9.46375 -3.05125 8.9275 -2.5625 8.375 C-0.71813924 5.57157164 -0.37543153 3.30379742 0 0 Z " fill="#FDF2D2" transform="translate(180,75)"/>
<path d="M0 0 C2.4375 0.1875 2.4375 0.1875 3.4375 1.1875 C3.57865161 3.85808851 3.47997107 6.51182238 3.4375 9.1875 C3.1075 9.1875 2.7775 9.1875 2.4375 9.1875 C2.31375 8.053125 2.19 6.91875 2.0625 5.75 C1.85625 4.574375 1.65 3.39875 1.4375 2.1875 C0.7775 1.8575 0.1175 1.5275 -0.5625 1.1875 C-0.5625 1.8475 -0.5625 2.5075 -0.5625 3.1875 C-1.8825 2.8575 -3.2025 2.5275 -4.5625 2.1875 C-2.5625 0.1875 -2.5625 0.1875 0 0 Z " fill="#E7B124" transform="translate(78.5625,67.8125)"/>
<path d="M0 0 C1.74627478 2.61941217 2.38722388 4.03824877 3 7 C0.69 7 -1.62 7 -4 7 C-4 6.34 -4 5.68 -4 5 C-2.68 4.67 -1.36 4.34 0 4 C0 2.68 0 1.36 0 0 Z " fill="#C0F5F9" transform="translate(79,135)"/>
<path d="M0 0 C0.66 0 1.32 0 2 0 C1.98839844 0.62648438 1.97679687 1.25296875 1.96484375 1.8984375 C1.95582031 2.71570313 1.94679687 3.53296875 1.9375 4.375 C1.92589844 5.18710938 1.91429687 5.99921875 1.90234375 6.8359375 C1.85533666 9.04937142 1.85533666 9.04937142 3 11 C1.0625 10.6875 1.0625 10.6875 -1 10 C-2.31223496 6.06329512 -1.24296256 3.87511856 0 0 Z " fill="#28B3B6" transform="translate(151,116)"/>
<path d="M0 0 C0.99 0.33 1.98 0.66 3 1 C3.9765625 7.0546875 3.9765625 7.0546875 4 9 C3.34 9.66 2.68 10.32 2 11 C1.01 10.67 0.02 10.34 -1 10 C-0.34 9.01 0.32 8.02 1 7 C1.20497101 4.19872957 1.26272884 2.52545768 0 0 Z " fill="#FEF5CD" transform="translate(178,50)"/>
<path d="M0 0 C1.98 0 3.96 0 6 0 C6 0.99 6 1.98 6 3 C3.69 3.33 1.38 3.66 -1 4 C-0.67 2.68 -0.34 1.36 0 0 Z " fill="#2DACA3" transform="translate(60,44)"/>
<path d="M0 0 C1.65 0 3.3 0 5 0 C5 1.32 5 2.64 5 4 C3.35 3.67 1.7 3.34 0 3 C0 2.01 0 1.02 0 0 Z " fill="#06AFB4" transform="translate(160,119)"/>
<path d="M0 0 C0.598125 0.226875 1.19625 0.45375 1.8125 0.6875 C1.4825 1.3475 1.1525 2.0075 0.8125 2.6875 C0.173125 2.81125 -0.46625 2.935 -1.125 3.0625 C-3.38601273 3.49689427 -3.38601273 3.49689427 -4.4375 5.75 C-4.685 6.389375 -4.9325 7.02875 -5.1875 7.6875 C-5.41803497 4.84423536 -5.54653101 3.22604651 -3.9375 0.8125 C-2.1875 -0.3125 -2.1875 -0.3125 0 0 Z " fill="#29AAAE" transform="translate(124.1875,113.3125)"/>
<path d="M0 0 C0.99 0 1.98 0 3 0 C3.66 1.32 4.32 2.64 5 4 C4.34 4 3.68 4 3 4 C2.67 4.66 2.34 5.32 2 6 C1.34 5.34 0.68 4.68 0 4 C0 2.68 0 1.36 0 0 Z " fill="#36ACA9" transform="translate(25,134)"/>
<path d="M0 0 C0.33 0 0.66 0 1 0 C1.3125 2.1875 1.3125 2.1875 1 5 C-1.5 7.8125 -1.5 7.8125 -4 10 C-2.8905928 6.51329166 -1.73662334 3.22515763 0 0 Z " fill="#DEFBFB" transform="translate(64,116)"/>
<path d="M0 0 C0.66 0.33 1.32 0.66 2 1 C1.67 2.98 1.34 4.96 1 7 C0.01 7 -0.98 7 -2 7 C-1.34 4.69 -0.68 2.38 0 0 Z " fill="#04AFB9" transform="translate(129,110)"/>
<path d="M0 0 C0.33 0 0.66 0 1 0 C1 1.65 1 3.3 1 5 C2.98 5 4.96 5 7 5 C7 5.33 7 5.66 7 6 C3.7 6 0.4 6 -3 6 C-2.01 4.02 -1.02 2.04 0 0 Z " fill="#14A9AD" transform="translate(147,77)"/>
<path d="M0 0 C0.33 0 0.66 0 1 0 C1.33 2.31 1.66 4.62 2 7 C0.35 6.67 -1.3 6.34 -3 6 C-3 4.68 -3 3.36 -3 2 C-2.34 2 -1.68 2 -1 2 C-0.67 1.34 -0.34 0.68 0 0 Z " fill="#FBFBE5" transform="translate(69,70)"/>
<path d="M0 0 C0.66 0 1.32 0 2 0 C2.66 1.65 3.32 3.3 4 5 C2.68 5 1.36 5 0 5 C0 4.34 0 3.68 0 3 C-0.66 2.67 -1.32 2.34 -2 2 C-1.34 2 -0.68 2 0 2 C0 1.34 0 0.68 0 0 Z " fill="#38B2AC" transform="translate(102,113)"/>
<path d="M0 0 C1.65 0 3.3 0 5 0 C4.67 1.32 4.34 2.64 4 4 C2.68 4 1.36 4 0 4 C0 2.68 0 1.36 0 0 Z " fill="#7CB483" transform="translate(24,98)"/>
<path d="M0 0 C0.66 0 1.32 0 2 0 C2 1.98 2 3.96 2 6 C1.01 6.495 1.01 6.495 0 7 C0 6.34 0 5.68 0 5 C-0.66 5 -1.32 5 -2 5 C-2 4.34 -2 3.68 -2 3 C-1.34 3 -0.68 3 0 3 C0 2.01 0 1.02 0 0 Z " fill="#EEAF28" transform="translate(178,75)"/>
</svg>
